<?xml version="1.0" encoding="utf-8"?>
<!-- Generator: Adobe Illustrator 24.3.0, SVG Export Plug-In . SVG Version: 6.00 Build 0)  -->
<svg version="1.1" id="Layer_1" xmlns="http://www.w3.org/2000/svg" xmlns:xlink="http://www.w3.org/1999/xlink" x="0px" y="0px"
	 viewBox="0 0 1600 3738.6" style="enable-background:new 0 0 1600 3738.6;" xml:space="preserve">
<style type="text/css">
	.st0{fill:#FFE1E1;}
</style>
<g>
	<path class="st0" d="M390.1,2091.4c4.6,1.5,8.2,3.8,11.8,6.2c2.2,1.5,4.3,3,6.4,4.5c2.1,1.5,4.4,2.2,6.9,2.1
		c3.8-0.1,7.7-0.1,11.5-0.1c3,0,5.9,0.3,8.8,1.2c7.7,2.4,11,8.3,8.8,16.1c-1.5,5.6-4.8,9.9-9.4,13.5c-3.5,2.7-7.3,5-11.1,7.2
		c-4.6,2.6-9.2,5.2-13.9,7.8c-3,1.6-6.2,2.8-9.6,2.9c-3.6,0.2-6.7-1.1-9.3-3.6c-2.5-2.5-4.4-5.4-5.9-8.6c-3.3-7.3-6.5-14.6-9.6-22
		c-1.8-4.2-2.9-8.6-2.7-13.3c0.2-4.1,1.6-7.7,4.2-10.8c2.8-3.3,6.3-4.4,10.5-3.6C388.7,2091,389.6,2091.3,390.1,2091.4z"/>
	<path class="st0" d="M424,2156c1.2-3.9,3.4-7.4,7-10c6.5-4.7,14.2-2.5,17.3,4.9c3.2,7.7-0.2,18.4-7.3,22.8
		c-6.9,4.3-14.6,1.4-17.1-6.6C422.8,2163.6,422.9,2160,424,2156z"/>
	<path class="st0" d="M371.9,2142.2c-1.4,4.4-3.8,8-7.9,10.5c-6.1,3.7-12.9,1.7-15.9-4.7c-3.9-8-0.3-19.6,7.4-24
		c6.3-3.6,13.2-1.2,16,5.5C373.3,2133.6,373.2,2137.9,371.9,2142.2z"/>
	<path class="st0" d="M365.3,2165.7c1.5-4.4,4.1-8.3,8.6-10.6c5.7-3,11.9-1,14.9,4.7c2,3.8,2.2,7.9,1.3,12c-1,4.7-3.3,8.6-7.1,11.5
		c-6.9,5.2-15.3,2.4-17.9-5.8C363.9,2173.6,364.1,2169.7,365.3,2165.7z"/>
	<path class="st0" d="M395.3,2175.1c1.4-4.2,3.7-7.7,7.5-10.1c6.5-4.2,14-1.8,16.7,5.5c2,5.3,1.3,10.6-1.1,15.6
		c-1.4,2.9-3.5,5.3-6.3,7.1c-6.5,4.1-13.8,1.6-16.6-5.5C393.9,2183.5,394,2179.4,395.3,2175.1z"/>
</g>
<g>
	<path class="st0" d="M253.7,1953.3c4.5,1.6,8.1,4,11.6,6.5c2.1,1.5,4.2,3.1,6.3,4.7c2,1.6,4.3,2.3,6.9,2.3c3.8,0,7.7,0.1,11.5,0.2
		c3,0.1,5.9,0.5,8.8,1.4c7.7,2.6,10.8,8.6,8.4,16.3c-1.7,5.5-5.1,9.8-9.7,13.2c-3.6,2.6-7.4,4.8-11.3,6.9c-4.7,2.5-9.4,5-14.1,7.4
		c-3,1.5-6.2,2.6-9.7,2.7c-3.6,0.1-6.7-1.2-9.2-3.9c-2.4-2.6-4.3-5.5-5.6-8.7c-3.1-7.4-6.1-14.8-9.1-22.2c-1.7-4.3-2.7-8.7-2.3-13.3
		c0.3-4.1,1.8-7.6,4.5-10.7c2.8-3.3,6.5-4.2,10.6-3.4C252.3,1952.9,253.2,1953.1,253.7,1953.3z"/>
	<path class="st0" d="M285.9,2018.8c1.3-3.8,3.6-7.3,7.2-9.8c6.7-4.5,14.2-2.1,17.1,5.4c3,7.8-0.7,18.4-7.9,22.6
		c-7,4.2-14.6,1-16.9-7C284.5,2026.3,284.7,2022.7,285.9,2018.8z"/>
	<path class="st0" d="M234.3,2003.6c-1.5,4.3-4.1,7.9-8.1,10.3c-6.2,3.5-12.9,1.3-15.8-5.1c-3.7-8.1,0.2-19.6,8.1-23.8
		c6.4-3.4,13.3-0.9,15.9,5.9C235.8,1995.1,235.6,1999.3,234.3,2003.6z"/>
	<path class="st0" d="M227,2026.9c1.6-4.4,4.3-8.2,8.9-10.4c5.8-2.8,12-0.7,14.8,5.1c1.9,3.9,2,7.9,1,12c-1.1,4.6-3.5,8.5-7.4,11.3
		c-7.1,5-15.3,2-17.7-6.3C225.4,2034.8,225.7,2030.9,227,2026.9z"/>
	<path class="st0" d="M256.7,2037.1c1.5-4.1,3.9-7.6,7.7-9.9c6.6-4,14-1.4,16.6,5.9c1.9,5.4,1.1,10.6-1.5,15.6
		c-1.5,2.9-3.6,5.3-6.5,6.9c-6.6,3.9-13.9,1.2-16.4-5.9C255.1,2045.5,255.3,2041.3,256.7,2037.1z"/>
</g>
<g>
	<path class="st0" d="M158.5,2378.3c4.8,0.3,8.9,1.6,13,3.1c2.5,0.9,4.9,1.8,7.3,2.8c2.4,0.9,4.8,1,7.3,0.3c3.7-1,7.4-2,11.2-3
		c2.9-0.7,5.8-1.2,8.8-1c8.1,0.4,12.7,5.3,12.6,13.4c-0.1,5.8-2.2,10.8-5.7,15.4c-2.7,3.5-5.8,6.7-9,9.7c-3.8,3.7-7.6,7.4-11.5,11
		c-2.5,2.3-5.3,4.2-8.6,5.2c-3.5,1.1-6.8,0.6-9.9-1.2c-3-1.8-5.6-4.1-7.8-6.9c-5-6.2-10-12.5-14.8-18.9c-2.8-3.6-5-7.6-5.9-12.2
		c-0.8-4-0.3-7.8,1.4-11.5c1.8-3.9,5.1-5.8,9.3-6.2C157.1,2378.3,158,2378.3,158.5,2378.3z"/>
	<path class="st0" d="M207.5,2432.5c0.2-4,1.4-8,4.2-11.4c5.2-6.1,13.1-5.9,17.9,0.5c5,6.7,4.4,17.8-1.3,23.9
		c-5.6,5.9-13.8,5-18.2-2.1C208.2,2440.1,207.4,2436.5,207.5,2432.5z"/>
	<path class="st0" d="M153.7,2432.1c-0.3,4.6-1.7,8.7-5,12.1c-4.9,5.1-12,4.8-16.6-0.6c-5.7-6.8-5.2-18.9,1.2-25.1
		c5.2-5.1,12.5-4.5,16.9,1.3C152.8,2423.5,153.8,2427.6,153.7,2432.1z"/>
	<path class="st0" d="M153.1,2456.5c0.4-4.7,1.9-9.1,5.7-12.4c4.8-4.3,11.3-4,15.6,0.9c2.9,3.2,4.1,7,4.3,11.3c0.2,4.8-1,9.2-4,12.9
		c-5.4,6.7-14.2,6.2-18.8-1.2C153.7,2464.5,152.9,2460.7,153.1,2456.5z"/>
	<path class="st0" d="M184.5,2458.1c0.3-4.4,1.6-8.4,4.7-11.7c5.3-5.7,13.1-5.2,17.6,1.1c3.3,4.7,3.9,9.9,2.8,15.4
		c-0.7,3.2-2.1,6.1-4.3,8.4c-5.2,5.5-13,5-17.4-1.2C185.2,2466.6,184.3,2462.6,184.5,2458.1z"/>
</g>
<g>
	<path class="st0" d="M211.1,2531c4.8,0.3,8.9,1.6,13,3.1c2.5,0.9,4.9,1.8,7.3,2.8c2.4,0.9,4.8,1,7.3,0.3c3.7-1,7.4-2,11.2-3
		c2.9-0.7,5.8-1.2,8.8-1c8.1,0.4,12.7,5.3,12.6,13.4c-0.1,5.8-2.2,10.8-5.7,15.4c-2.7,3.5-5.8,6.7-9,9.7c-3.8,3.7-7.6,7.4-11.5,11
		c-2.5,2.3-5.3,4.2-8.6,5.2c-3.5,1.1-6.8,0.6-9.9-1.2c-3-1.8-5.6-4.1-7.8-6.9c-5-6.2-10-12.5-14.8-18.9c-2.8-3.6-5-7.6-5.9-12.2
		c-0.8-4-0.3-7.8,1.4-11.5c1.8-3.9,5.1-5.8,9.3-6.2C209.7,2531,210.6,2531,211.1,2531z"/>
	<path class="st0" d="M260.1,2585.1c0.2-4,1.4-8,4.2-11.4c5.2-6.1,13.1-5.9,17.9,0.5c5,6.7,4.4,17.8-1.3,23.9
		c-5.6,5.9-13.8,5-18.2-2.1C260.8,2592.8,260.1,2589.2,260.1,2585.1z"/>
	<path class="st0" d="M206.3,2584.7c-0.3,4.6-1.7,8.7-5,12.1c-4.9,5.1-12,4.8-16.6-0.6c-5.7-6.8-5.2-18.9,1.2-25.1
		c5.2-5.1,12.5-4.5,16.9,1.3C205.5,2576.1,206.4,2580.3,206.3,2584.7z"/>
	<path class="st0" d="M205.7,2609.1c0.4-4.7,1.9-9.1,5.7-12.4c4.8-4.3,11.3-4,15.6,0.9c2.9,3.2,4.1,7,4.3,11.3c0.2,4.8-1,9.2-4,12.9
		c-5.4,6.7-14.2,6.2-18.8-1.2C206.3,2617.1,205.6,2613.4,205.7,2609.1z"/>
	<path class="st0" d="M237.1,2610.8c0.3-4.4,1.6-8.4,4.7-11.7c5.3-5.7,13.1-5.2,17.6,1.1c3.3,4.7,3.9,9.9,2.8,15.4
		c-0.7,3.2-2.1,6.1-4.3,8.4c-5.2,5.5-13,5-17.4-1.2C237.9,2619.3,236.9,2615.2,237.1,2610.8z"/>
</g>
<g>
	<path class="st0" d="M393.9,1889.9c4.7-0.8,9-0.6,13.4-0.1c2.6,0.3,5.2,0.6,7.8,1c2.5,0.3,4.9-0.1,7.1-1.4
		c3.3-1.9,6.7-3.7,10.1-5.5c2.6-1.4,5.4-2.5,8.4-3.1c8-1.6,13.6,2.1,15.4,10c1.3,5.7,0.4,11-1.9,16.3c-1.8,4.1-4,7.8-6.4,11.6
		c-2.9,4.5-5.7,9-8.6,13.4c-1.9,2.8-4.1,5.3-7.1,7.1c-3.1,1.9-6.4,2.2-9.9,1.2c-3.4-1-6.4-2.7-9.2-4.8c-6.4-4.9-12.6-9.8-18.9-14.8
		c-3.6-2.9-6.6-6.2-8.6-10.5c-1.7-3.7-2.2-7.5-1.4-11.5c0.9-4.2,3.5-6.8,7.5-8.2C392.5,1890.2,393.4,1890,393.9,1889.9z"/>
	<path class="st0" d="M454.3,1930.9c-0.8-4-0.5-8.1,1.4-12.1c3.6-7.2,11.3-8.9,17.5-3.8c6.5,5.3,8.5,16.3,4.4,23.5
		c-4.1,7.1-12.2,8.1-18.1,2.3C456.8,1938.1,455.2,1934.9,454.3,1930.9z"/>
	<path class="st0" d="M401.9,1943.3c0.8,4.5,0.4,8.9-2,12.9c-3.6,6.1-10.5,7.5-16.3,3.4c-7.2-5.2-9.5-17.1-4.8-24.6
		c3.9-6.2,11.1-7.3,16.7-2.7C399.1,1935.1,401,1938.9,401.9,1943.3z"/>
	<path class="st0" d="M407.1,1967.1c-0.8-4.6-0.3-9.3,2.6-13.4c3.6-5.4,10-6.5,15.4-2.9c3.5,2.4,5.7,5.9,6.8,9.9
		c1.3,4.6,1.2,9.1-0.9,13.5c-3.7,7.8-12.3,9.4-18.5,3.3C409.6,1974.7,408,1971.3,407.1,1967.1z"/>
	<path class="st0" d="M438,1961.3c-0.8-4.3-0.4-8.5,1.8-12.4c3.8-6.8,11.5-8.2,17.3-3c4.3,3.8,6.2,8.7,6.4,14.3
		c0.1,3.3-0.6,6.4-2.2,9.2c-3.8,6.6-11.4,7.9-17.2,3C440.8,1969.4,438.9,1965.6,438,1961.3z"/>
</g>
<g>
	<path class="st0" d="M313.5,2288c4.4,2,7.8,4.6,11.1,7.5c2,1.7,4,3.4,5.9,5.2c1.9,1.7,4.1,2.7,6.7,2.9c3.8,0.3,7.7,0.7,11.5,1.1
		c3,0.3,5.9,1,8.6,2.1c7.4,3.2,10,9.4,7.1,17c-2.1,5.4-5.9,9.4-10.7,12.4c-3.8,2.3-7.7,4.2-11.8,6c-4.9,2.1-9.7,4.2-14.7,6.2
		c-3.1,1.3-6.4,2.1-9.9,1.9c-3.6-0.2-6.6-1.8-8.8-4.6c-2.2-2.7-3.8-5.9-4.9-9.2c-2.5-7.6-4.9-15.2-7.2-22.9c-1.3-4.4-2-8.9-1.2-13.5
		c0.6-4,2.4-7.5,5.3-10.3c3.1-3,6.8-3.7,10.8-2.5C312.2,2287.5,313,2287.8,313.5,2288z"/>
	<path class="st0" d="M340.3,2355.9c1.6-3.7,4.1-7,8-9.2c7-3.9,14.4-0.9,16.6,6.8c2.4,8-2.2,18.3-9.7,21.9
		c-7.3,3.6-14.7-0.2-16.3-8.3C338.3,2363.3,338.9,2359.7,340.3,2355.9z"/>
	<path class="st0" d="M290.1,2336.6c-1.9,4.2-4.7,7.6-8.9,9.6c-6.4,3-13,0.3-15.4-6.4c-3-8.4,1.8-19.5,9.9-23
		c6.7-2.9,13.3,0.2,15.3,7.2C292.3,2328.3,291.8,2332.5,290.1,2336.6z"/>
	<path class="st0" d="M281,2359.2c2-4.2,5-7.8,9.7-9.6c6-2.4,12,0.3,14.3,6.3c1.6,4,1.4,8,0,12.1c-1.5,4.5-4.2,8.2-8.3,10.7
		c-7.5,4.4-15.4,0.8-17.2-7.7C278.7,2367,279.3,2363.2,281,2359.2z"/>
	<path class="st0" d="M309.8,2371.8c1.8-4,4.5-7.3,8.5-9.3c6.9-3.5,14.1-0.3,16,7.2c1.4,5.5,0.2,10.6-2.8,15.4
		c-1.7,2.8-4.1,4.9-7,6.4c-6.9,3.3-13.9,0.1-15.9-7.2C307.5,2380.1,308,2375.9,309.8,2371.8z"/>
</g>
<g>
	<path class="st0" d="M221.1,1788.4c4.3-2,8.6-2.9,12.9-3.6c2.6-0.4,5.2-0.8,7.8-1.1c2.6-0.3,4.7-1.4,6.5-3.2c2.7-2.7,5.5-5.4,8.3-8
		c2.2-2,4.5-3.9,7.2-5.2c7.3-3.6,13.7-1.5,17.5,5.6c2.7,5.1,3.3,10.5,2.5,16.2c-0.7,4.4-1.8,8.6-3.1,12.9
		c-1.6,5.1-3.1,10.2-4.8,15.2c-1.1,3.2-2.6,6.2-5,8.7c-2.5,2.6-5.6,3.8-9.2,3.7c-3.5-0.1-6.9-0.9-10.2-2.2c-7.4-3-14.8-6.2-22.1-9.4
		c-4.2-1.8-8-4.3-11.1-7.8c-2.6-3.1-4.1-6.7-4.4-10.7c-0.3-4.3,1.6-7.5,5.1-9.9C219.8,1789.1,220.6,1788.7,221.1,1788.4z"/>
	<path class="st0" d="M290.2,1812c-1.8-3.6-2.7-7.7-1.8-12.1c1.5-7.9,8.6-11.5,15.9-8.3c7.6,3.4,12.5,13.5,10.4,21.6
		c-2,7.9-9.7,11.1-16.9,7C294.5,1818.4,292.1,1815.6,290.2,1812z"/>
	<path class="st0" d="M242.9,1837.8c2,4.2,2.7,8.5,1.5,13c-1.9,6.9-8.2,10.1-14.8,7.5c-8.3-3.2-13.7-14-11.1-22.5
		c2.1-7,8.8-10,15.4-7C238,1830.6,240.8,1833.8,242.9,1837.8z"/>
	<path class="st0" d="M254.2,1859.4c-1.9-4.3-2.7-8.9-1.1-13.6c2.1-6.1,8-8.9,14.1-6.8c4.1,1.4,7,4.2,9.2,7.8
		c2.5,4.1,3.6,8.5,2.7,13.2c-1.5,8.5-9.4,12.3-17,8.1C258.6,1866.1,256.1,1863.2,254.2,1859.4z"/>
	<path class="st0" d="M282.5,1845.6c-1.9-3.9-2.6-8.1-1.6-12.5c1.9-7.6,8.9-10.9,15.9-7.5c5.1,2.5,8.2,6.7,9.9,12.1
		c1,3.1,1.1,6.3,0.3,9.5c-1.9,7.4-8.9,10.7-15.8,7.4C287.2,1852.7,284.4,1849.6,282.5,1845.6z"/>
</g>
<g>
	<path class="st0" d="M358.8,1646.6c4.3-2,8.6-2.9,12.9-3.6c2.6-0.4,5.2-0.8,7.8-1.1c2.6-0.3,4.7-1.4,6.5-3.2c2.7-2.7,5.5-5.4,8.3-8
		c2.2-2,4.5-3.9,7.2-5.2c7.3-3.6,13.7-1.5,17.5,5.6c2.7,5.1,3.3,10.5,2.5,16.2c-0.7,4.4-1.8,8.6-3.1,12.9
		c-1.6,5.1-3.1,10.2-4.8,15.2c-1.1,3.2-2.6,6.2-5,8.7c-2.5,2.6-5.6,3.8-9.2,3.7c-3.5-0.1-6.9-0.9-10.2-2.2c-7.4-3-14.8-6.2-22.1-9.4
		c-4.2-1.8-8-4.3-11.1-7.8c-2.6-3.1-4.1-6.7-4.4-10.7c-0.3-4.3,1.6-7.5,5.1-9.9C357.6,1647.3,358.4,1646.9,358.8,1646.6z"/>
	<path class="st0" d="M427.9,1670.3c-1.8-3.6-2.7-7.7-1.8-12.1c1.5-7.9,8.6-11.5,15.9-8.3c7.6,3.4,12.5,13.5,10.4,21.6
		c-2,7.9-9.7,11.1-16.9,7C432.2,1676.6,429.8,1673.9,427.9,1670.3z"/>
	<path class="st0" d="M380.6,1696c2,4.2,2.7,8.5,1.5,13c-1.9,6.9-8.2,10.1-14.8,7.5c-8.3-3.2-13.7-14-11.1-22.5c2.1-7,8.8-10,15.4-7
		C375.7,1688.9,378.6,1692,380.6,1696z"/>
	<path class="st0" d="M391.9,1717.6c-1.9-4.3-2.7-8.9-1.1-13.6c2.1-6.1,8-8.9,14.1-6.8c4.1,1.4,7,4.2,9.2,7.8
		c2.5,4.1,3.6,8.5,2.7,13.2c-1.5,8.5-9.4,12.3-17,8.1C396.3,1724.3,393.8,1721.4,391.9,1717.6z"/>
	<path class="st0" d="M420.2,1703.9c-1.9-3.9-2.6-8.1-1.6-12.5c1.9-7.6,8.9-10.9,15.9-7.5c5.1,2.5,8.2,6.7,9.9,12.1
		c1,3.1,1.1,6.3,0.3,9.5c-1.9,7.4-8.9,10.7-15.8,7.4C425,1710.9,422.2,1707.8,420.2,1703.9z"/>
</g>
<g>
	<path class="st0" d="M143.8,1363.4c4.7-1,9-0.8,13.3-0.5c2.6,0.2,5.2,0.4,7.8,0.7c2.6,0.3,4.9-0.3,7.1-1.6c3.3-2,6.6-3.9,10-5.8
		c2.6-1.5,5.3-2.7,8.3-3.4c7.9-1.8,13.6,1.7,15.7,9.5c1.5,5.6,0.8,11-1.4,16.3c-1.7,4.1-3.8,8-6,11.8c-2.7,4.6-5.4,9.2-8.2,13.7
		c-1.8,2.9-4,5.5-6.9,7.3c-3.1,2-6.4,2.4-9.9,1.5c-3.4-0.9-6.5-2.5-9.4-4.5c-6.5-4.7-12.9-9.4-19.3-14.3c-3.7-2.8-6.8-6-8.9-10.2
		c-1.8-3.6-2.4-7.5-1.7-11.5c0.7-4.3,3.3-6.9,7.3-8.4C142.4,1363.8,143.3,1363.5,143.8,1363.4z"/>
	<path class="st0" d="M205.5,1402.5c-0.9-3.9-0.8-8.1,1-12.1c3.3-7.3,11.1-9.2,17.4-4.3c6.6,5.1,9,16,5.1,23.4
		c-3.8,7.2-12,8.5-18.1,2.8C208.2,1409.7,206.5,1406.4,205.5,1402.5z"/>
	<path class="st0" d="M153.5,1416.5c0.9,4.5,0.7,8.9-1.6,13c-3.4,6.2-10.3,7.9-16.2,3.9c-7.3-5-10-16.8-5.5-24.5
		c3.7-6.3,10.9-7.7,16.6-3.2C150.4,1408.4,152.4,1412.1,153.5,1416.5z"/>
	<path class="st0" d="M159.4,1440.1c-0.9-4.6-0.6-9.2,2.1-13.5c3.5-5.5,9.8-6.8,15.3-3.3c3.6,2.3,5.9,5.7,7.1,9.7
		c1.4,4.5,1.5,9.1-0.4,13.5c-3.4,7.9-12,9.7-18.4,3.9C162.2,1447.7,160.4,1444.3,159.4,1440.1z"/>
	<path class="st0" d="M190.1,1433.4c-0.9-4.3-0.7-8.5,1.4-12.5c3.6-6.9,11.2-8.5,17.2-3.6c4.4,3.6,6.4,8.5,6.8,14.1
		c0.2,3.3-0.4,6.4-1.9,9.3c-3.6,6.7-11.2,8.3-17.1,3.5C193.1,1441.4,191.1,1437.7,190.1,1433.4z"/>
</g>
<g>
	<path class="st0" d="M308.2,1432.7c4.3-2,8.6-2.9,12.9-3.6c2.6-0.4,5.2-0.8,7.8-1.1c2.6-0.3,4.7-1.4,6.5-3.2c2.7-2.7,5.5-5.4,8.3-8
		c2.2-2,4.5-3.9,7.2-5.2c7.3-3.6,13.7-1.5,17.5,5.6c2.7,5.1,3.3,10.5,2.5,16.2c-0.7,4.4-1.8,8.6-3.1,12.9
		c-1.6,5.1-3.1,10.2-4.8,15.2c-1.1,3.2-2.6,6.2-5,8.7c-2.5,2.6-5.6,3.8-9.2,3.7c-3.5-0.1-6.9-0.9-10.2-2.2c-7.4-3-14.8-6.2-22.1-9.4
		c-4.2-1.8-8-4.3-11.1-7.8c-2.6-3.1-4.1-6.7-4.4-10.7c-0.3-4.3,1.6-7.5,5.1-9.9C306.9,1433.4,307.8,1433,308.2,1432.7z"/>
	<path class="st0" d="M377.3,1456.4c-1.8-3.6-2.7-7.7-1.8-12.1c1.5-7.9,8.6-11.5,15.9-8.3c7.6,3.4,12.5,13.5,10.4,21.6
		c-2,7.9-9.7,11.1-16.9,7C381.6,1462.7,379.2,1460,377.3,1456.4z"/>
	<path class="st0" d="M330,1482.1c2,4.2,2.7,8.5,1.5,13c-1.9,6.9-8.2,10.1-14.8,7.5c-8.3-3.2-13.7-14-11.1-22.5c2.1-7,8.8-10,15.4-7
		C325.1,1475,327.9,1478.1,330,1482.1z"/>
	<path class="st0" d="M341.3,1503.7c-1.9-4.3-2.7-8.9-1.1-13.6c2.1-6.1,8-8.9,14.1-6.8c4.1,1.4,7,4.2,9.2,7.8
		c2.5,4.1,3.6,8.5,2.7,13.2c-1.5,8.5-9.4,12.3-17,8.1C345.7,1510.4,343.2,1507.5,341.3,1503.7z"/>
	<path class="st0" d="M369.6,1490c-1.9-3.9-2.6-8.1-1.6-12.5c1.9-7.6,8.9-10.9,15.9-7.5c5.1,2.5,8.2,6.7,9.9,12.1
		c1,3.1,1.1,6.3,0.3,9.5c-1.9,7.4-8.9,10.7-15.8,7.4C374.3,1497,371.5,1493.9,369.6,1490z"/>
</g>
<g>
	<path class="st0" d="M234.1,1228.2c4.3-2,8.6-2.9,12.9-3.6c2.6-0.4,5.2-0.8,7.8-1.1c2.6-0.3,4.7-1.4,6.5-3.2c2.7-2.7,5.5-5.4,8.3-8
		c2.2-2,4.5-3.9,7.2-5.2c7.3-3.6,13.7-1.5,17.5,5.6c2.7,5.1,3.3,10.5,2.5,16.2c-0.7,4.4-1.8,8.6-3.1,12.9
		c-1.6,5.1-3.1,10.2-4.8,15.2c-1.1,3.2-2.6,6.2-5,8.7c-2.5,2.6-5.6,3.8-9.2,3.7c-3.5-0.1-6.9-0.9-10.2-2.2c-7.4-3-14.8-6.2-22.1-9.4
		c-4.2-1.8-8-4.3-11.1-7.8c-2.6-3.1-4.1-6.7-4.4-10.7c-0.3-4.3,1.6-7.5,5.1-9.9C232.9,1228.9,233.7,1228.5,234.1,1228.2z"/>
	<path class="st0" d="M303.2,1251.8c-1.8-3.6-2.7-7.7-1.8-12.1c1.5-7.9,8.6-11.5,15.9-8.3c7.6,3.4,12.5,13.5,10.4,21.6
		c-2,7.9-9.7,11.1-16.9,7C307.5,1258.2,305.1,1255.4,303.2,1251.8z"/>
	<path class="st0" d="M255.9,1277.6c2,4.2,2.7,8.5,1.5,13c-1.9,6.9-8.2,10.1-14.8,7.5c-8.3-3.2-13.7-14-11.1-22.5
		c2.1-7,8.8-10,15.4-7C251,1270.4,253.9,1273.6,255.9,1277.6z"/>
	<path class="st0" d="M267.2,1299.2c-1.9-4.3-2.7-8.9-1.1-13.6c2.1-6.1,8-8.9,14.1-6.8c4.1,1.4,7,4.2,9.2,7.8
		c2.5,4.1,3.6,8.5,2.7,13.2c-1.5,8.5-9.4,12.3-17,8.1C271.6,1305.9,269.1,1303,267.2,1299.2z"/>
	<path class="st0" d="M295.5,1285.4c-1.9-3.9-2.6-8.1-1.6-12.5c1.9-7.6,8.9-10.9,15.9-7.5c5.1,2.5,8.2,6.7,9.9,12.1
		c1,3.1,1.1,6.3,0.3,9.5c-1.9,7.4-8.9,10.7-15.8,7.4C300.3,1292.5,297.5,1289.4,295.5,1285.4z"/>
</g>
<g>
	<path class="st0" d="M126.9,1007.3c4.3-2,8.6-2.9,12.9-3.6c2.6-0.4,5.2-0.8,7.8-1.1c2.6-0.3,4.7-1.4,6.5-3.2c2.7-2.7,5.5-5.4,8.3-8
		c2.2-2,4.5-3.9,7.2-5.2c7.3-3.6,13.7-1.5,17.5,5.6c2.7,5.1,3.3,10.5,2.5,16.2c-0.7,4.4-1.8,8.6-3.1,12.9
		c-1.6,5.1-3.1,10.2-4.8,15.2c-1.1,3.2-2.6,6.2-5,8.7c-2.5,2.6-5.6,3.8-9.2,3.7c-3.5-0.1-6.9-0.9-10.2-2.2c-7.4-3-14.8-6.2-22.1-9.4
		c-4.2-1.8-8-4.3-11.1-7.8c-2.6-3.1-4.1-6.7-4.4-10.7c-0.3-4.3,1.6-7.5,5.1-9.9C125.7,1008,126.5,1007.5,126.9,1007.3z"/>
	<path class="st0" d="M196,1030.9c-1.8-3.6-2.7-7.7-1.8-12.1c1.5-7.9,8.6-11.5,15.9-8.3c7.6,3.4,12.5,13.5,10.4,21.6
		c-2,7.9-9.7,11.1-16.9,7C200.3,1037.2,197.9,1034.5,196,1030.9z"/>
	<path class="st0" d="M148.7,1056.6c2,4.2,2.7,8.5,1.5,13c-1.9,6.9-8.2,10.1-14.8,7.5c-8.3-3.2-13.7-14-11.1-22.5
		c2.1-7,8.8-10,15.4-7C143.8,1049.5,146.6,1052.6,148.7,1056.6z"/>
	<path class="st0" d="M160,1078.3c-1.9-4.3-2.7-8.9-1.1-13.6c2.1-6.1,8-8.9,14.1-6.8c4.1,1.4,7,4.2,9.2,7.8
		c2.5,4.1,3.6,8.5,2.7,13.2c-1.5,8.5-9.4,12.3-17,8.1C164.4,1085,161.9,1082,160,1078.3z"/>
	<path class="st0" d="M188.3,1064.5c-1.9-3.9-2.6-8.1-1.6-12.5c1.9-7.6,8.9-10.9,15.9-7.5c5.1,2.5,8.2,6.7,9.9,12.1
		c1,3.1,1.1,6.3,0.3,9.5c-1.9,7.4-8.9,10.7-15.8,7.4C193,1071.6,190.3,1068.5,188.3,1064.5z"/>
</g>
<g>
	<path class="st0" d="M-18.3,732.6c4.3-2,8.6-2.9,12.9-3.6c2.6-0.4,5.2-0.8,7.8-1.1c2.6-0.3,4.7-1.4,6.5-3.2c2.7-2.7,5.5-5.4,8.3-8
		c2.2-2,4.5-3.9,7.2-5.2c7.3-3.6,13.7-1.5,17.5,5.6c2.7,5.1,3.3,10.5,2.5,16.2c-0.7,4.4-1.8,8.6-3.1,12.9
		c-1.6,5.1-3.1,10.2-4.8,15.2c-1.1,3.2-2.6,6.2-5,8.7c-2.5,2.6-5.6,3.8-9.2,3.7c-3.5-0.1-6.9-0.9-10.2-2.2c-7.4-3-14.8-6.2-22.1-9.4
		c-4.2-1.8-8-4.3-11.1-7.8c-2.6-3.1-4.1-6.7-4.4-10.7c-0.3-4.3,1.6-7.5,5.1-9.9C-19.6,733.3-18.8,732.9-18.3,732.6z"/>
	<path class="st0" d="M50.7,756.2c-1.8-3.6-2.7-7.7-1.8-12.1c1.5-7.9,8.6-11.5,15.9-8.3c7.6,3.4,12.5,13.5,10.4,21.6
		c-2,7.9-9.7,11.1-16.9,7C55.1,762.6,52.7,759.8,50.7,756.2z"/>
	<path class="st0" d="M3.4,782c2,4.2,2.7,8.5,1.5,13c-1.9,6.9-8.2,10.1-14.8,7.5c-8.3-3.2-13.7-14-11.1-22.5c2.1-7,8.8-10,15.4-7
		C-1.5,774.8,1.4,778,3.4,782z"/>
	<path class="st0" d="M14.8,803.6c-1.9-4.3-2.7-8.9-1.1-13.6c2.1-6.1,8-8.9,14.1-6.8c4.1,1.4,7,4.2,9.2,7.8
		c2.5,4.1,3.6,8.5,2.7,13.2c-1.5,8.5-9.4,12.3-17,8.1C19.2,810.3,16.7,807.4,14.8,803.6z"/>
	<path class="st0" d="M43,789.8c-1.9-3.9-2.6-8.1-1.6-12.5c1.9-7.6,8.9-10.9,15.9-7.5c5.1,2.5,8.2,6.7,9.9,12.1
		c1,3.1,1.1,6.3,0.3,9.5c-1.9,7.4-8.9,10.7-15.8,7.4C47.8,796.9,45,793.8,43,789.8z"/>
</g>
<g>
	<path class="st0" d="M85.6,1133.3c4.8,0,9,1.1,13.1,2.4c2.5,0.8,5,1.5,7.5,2.4c2.4,0.8,4.8,0.8,7.3-0.1c3.6-1.3,7.3-2.4,11-3.6
		c2.9-0.9,5.8-1.5,8.8-1.5c8.1-0.1,13,4.6,13.3,12.7c0.2,5.8-1.6,10.9-4.8,15.7c-2.5,3.7-5.4,7-8.4,10.2c-3.6,3.9-7.2,7.8-10.9,11.6
		c-2.4,2.4-5,4.5-8.3,5.7c-3.4,1.3-6.7,1-9.9-0.6c-3.1-1.6-5.9-3.8-8.2-6.4c-5.4-6-10.6-12-15.9-18c-3-3.5-5.4-7.3-6.6-11.9
		c-1-3.9-0.8-7.8,0.7-11.6c1.6-4,4.7-6.1,8.9-6.7C84.2,1133.4,85.1,1133.4,85.6,1133.3z"/>
	<path class="st0" d="M137.5,1184.7c0-4,0.9-8.1,3.6-11.6c4.8-6.4,12.8-6.7,17.9-0.5c5.4,6.4,5.4,17.6,0,23.9
		c-5.3,6.2-13.5,5.8-18.2-1.1C138.7,1192.2,137.7,1188.7,137.5,1184.7z"/>
	<path class="st0" d="M83.7,1187.3c0,4.6-1.2,8.8-4.3,12.4c-4.7,5.4-11.7,5.5-16.6,0.3c-6.1-6.5-6.2-18.6-0.2-25.1
		c4.9-5.4,12.2-5.2,16.9,0.4C82.4,1178.7,83.6,1182.8,83.7,1187.3z"/>
	<path class="st0" d="M84.5,1211.7c0.1-4.7,1.4-9.1,5-12.7c4.6-4.6,11.1-4.6,15.6,0c3,3,4.5,6.8,4.9,11c0.4,4.7-0.5,9.2-3.3,13.1
		c-5.1,7-13.8,7-18.8-0.1C85.6,1219.6,84.6,1215.9,84.5,1211.7z"/>
	<path class="st0" d="M116,1211.6c0-4.4,1.2-8.4,4-11.9c5-6,12.8-5.9,17.6,0.2c3.5,4.5,4.5,9.6,3.7,15.2c-0.5,3.2-1.7,6.2-3.8,8.7
		c-4.9,5.8-12.7,5.7-17.5-0.2C117.2,1220,116,1216,116,1211.6z"/>
</g>
<g>
	<path class="st0" d="M0.9,901.2c4.8,0,9,1.1,13.1,2.4c2.5,0.8,5,1.5,7.5,2.4c2.4,0.8,4.8,0.8,7.3-0.1c3.6-1.3,7.3-2.4,11-3.6
		c2.9-0.9,5.8-1.5,8.8-1.5c8.1-0.1,13,4.6,13.3,12.7c0.2,5.8-1.6,10.9-4.8,15.7c-2.5,3.7-5.4,7-8.4,10.2c-3.6,3.9-7.2,7.8-10.9,11.6
		c-2.4,2.4-5,4.5-8.3,5.7c-3.4,1.3-6.7,1-9.9-0.6c-3.1-1.6-5.9-3.8-8.2-6.4c-5.4-6-10.6-12-15.9-18c-3-3.5-5.4-7.3-6.6-11.9
		c-1-3.9-0.8-7.8,0.7-11.6c1.6-4,4.7-6.1,8.9-6.7C-0.5,901.3,0.4,901.3,0.9,901.2z"/>
	<path class="st0" d="M52.9,952.5c0-4,0.9-8.1,3.6-11.6c4.8-6.4,12.8-6.7,17.9-0.5c5.4,6.4,5.4,17.6,0,23.9
		c-5.3,6.2-13.5,5.8-18.2-1.1C54,960.1,53,956.6,52.9,952.5z"/>
	<path class="st0" d="M-0.9,955.2c0,4.6-1.2,8.8-4.3,12.4c-4.7,5.4-11.7,5.5-16.6,0.3c-6.1-6.5-6.2-18.6-0.2-25.1
		c4.9-5.4,12.2-5.2,16.9,0.4C-2.2,946.6-1,950.7-0.9,955.2z"/>
	<path class="st0" d="M-0.1,979.5c0.1-4.7,1.4-9.1,5-12.7c4.6-4.6,11.1-4.6,15.6,0c3,3,4.5,6.8,4.9,11c0.4,4.7-0.5,9.2-3.3,13.1
		c-5.1,7-13.8,7-18.8-0.1C0.9,987.5,0,983.8-0.1,979.5z"/>
	<path class="st0" d="M31.3,979.4c0-4.4,1.2-8.4,4-11.9c5-6,12.8-5.9,17.6,0.2c3.5,4.5,4.5,9.6,3.7,15.2c-0.5,3.2-1.7,6.2-3.8,8.7
		c-4.9,5.8-12.7,5.7-17.5-0.2C32.5,987.9,31.4,983.9,31.3,979.4z"/>
</g>
<g>
	<path class="st0" d="M191.1,1581c4.3-2,8.6-2.9,12.9-3.6c2.6-0.4,5.2-0.8,7.8-1.1c2.6-0.3,4.7-1.4,6.5-3.2c2.7-2.7,5.5-5.4,8.3-8
		c2.2-2,4.5-3.9,7.2-5.2c7.3-3.6,13.7-1.5,17.5,5.6c2.7,5.1,3.3,10.5,2.5,16.2c-0.7,4.4-1.8,8.6-3.1,12.9
		c-1.6,5.1-3.1,10.2-4.8,15.2c-1.1,3.2-2.6,6.2-5,8.7c-2.5,2.6-5.6,3.8-9.2,3.7c-3.5-0.1-6.9-0.9-10.2-2.2c-7.4-3-14.8-6.2-22.1-9.4
		c-4.2-1.8-8-4.3-11.1-7.8c-2.6-3.1-4.1-6.7-4.4-10.7c-0.3-4.3,1.6-7.5,5.1-9.9C189.8,1581.7,190.7,1581.3,191.1,1581z"/>
	<path class="st0" d="M260.2,1604.7c-1.8-3.6-2.7-7.7-1.8-12.1c1.5-7.9,8.6-11.5,15.9-8.3c7.6,3.4,12.5,13.5,10.4,21.6
		c-2,7.9-9.7,11.1-16.9,7C264.5,1611,262.1,1608.3,260.2,1604.7z"/>
	<path class="st0" d="M212.9,1630.4c2,4.2,2.7,8.5,1.5,13c-1.9,6.9-8.2,10.1-14.8,7.5c-8.3-3.2-13.7-14-11.1-22.5
		c2.1-7,8.8-10,15.4-7C208,1623.3,210.8,1626.4,212.9,1630.4z"/>
	<path class="st0" d="M224.2,1652c-1.9-4.3-2.7-8.9-1.1-13.6c2.1-6.1,8-8.9,14.1-6.8c4.1,1.4,7,4.2,9.2,7.8
		c2.5,4.1,3.6,8.5,2.7,13.2c-1.5,8.5-9.4,12.3-17,8.1C228.6,1658.7,226.1,1655.8,224.2,1652z"/>
	<path class="st0" d="M252.5,1638.3c-1.9-3.9-2.6-8.1-1.6-12.5c1.9-7.6,8.9-10.9,15.9-7.5c5.1,2.5,8.2,6.7,9.9,12.1
		c1,3.1,1.1,6.3,0.3,9.5c-1.9,7.4-8.9,10.7-15.8,7.4C257.2,1645.3,254.4,1642.2,252.5,1638.3z"/>
</g>
<g>
	<path class="st0" d="M238.4,2147.3c4,2.6,7,5.7,9.8,9c1.7,2,3.4,4,5.1,6c1.6,2,3.7,3.2,6.2,3.8c3.7,0.9,7.5,1.8,11.2,2.8
		c2.9,0.8,5.7,1.8,8.2,3.4c6.9,4.3,8.5,10.8,4.5,17.8c-2.9,5-7.2,8.4-12.5,10.7c-4.1,1.8-8.3,3-12.6,4.1c-5.1,1.3-10.3,2.7-15.4,4
		c-3.3,0.8-6.7,1.1-10,0.4c-3.6-0.7-6.2-2.7-8.1-5.9c-1.8-3-2.9-6.4-3.5-9.8c-1.3-7.9-2.6-15.8-3.8-23.7c-0.7-4.5-0.6-9.1,0.8-13.5
		c1.2-3.9,3.5-7,6.8-9.4c3.5-2.5,7.2-2.6,11.1-0.9C237.2,2146.6,238,2147,238.4,2147.3z"/>
	<path class="st0" d="M254.9,2218.4c2.1-3.4,5.1-6.3,9.3-7.9c7.5-2.9,14.3,1.2,15.4,9.1c1.2,8.3-4.8,17.7-12.8,20.2
		c-7.8,2.4-14.5-2.4-14.8-10.7C251.8,2225.4,252.8,2221.9,254.9,2218.4z"/>
	<path class="st0" d="M208,2191.9c-2.5,3.9-5.8,6.8-10.2,8.1c-6.8,2-12.9-1.6-14.2-8.6c-1.7-8.7,4.7-19,13.3-21.3
		c7-1.9,13.1,2.1,14.1,9.4C211.5,2183.9,210.3,2188,208,2191.9z"/>
	<path class="st0" d="M195.7,2212.9c2.6-3.9,6.1-7,11-8.1c6.3-1.5,11.8,2,13.2,8.3c0.9,4.2,0.2,8.2-1.7,11.9
		c-2.2,4.2-5.3,7.5-9.8,9.3c-8,3.2-15.4-1.5-15.8-10.1C192.3,2220.2,193.5,2216.5,195.7,2212.9z"/>
	<path class="st0" d="M222.3,2229.6c2.4-3.7,5.5-6.5,9.8-7.9c7.4-2.4,14,1.8,14.8,9.6c0.6,5.7-1.4,10.6-5,14.8
		c-2.1,2.5-4.7,4.3-7.9,5.3c-7.3,2.3-13.8-1.9-14.6-9.5C218.8,2237.4,219.9,2233.4,222.3,2229.6z"/>
</g>
<g>
	<path class="st0" d="M121.1,2718.8c4.5,1.7,8,4.2,11.5,6.8c2.1,1.6,4.1,3.2,6.2,4.8c2,1.6,4.2,2.4,6.8,2.5
		c3.8,0.1,7.7,0.3,11.5,0.5c3,0.2,5.9,0.6,8.7,1.7c7.6,2.8,10.5,8.8,8,16.5c-1.8,5.5-5.4,9.7-10,13c-3.6,2.5-7.5,4.6-11.5,6.6
		c-4.8,2.4-9.5,4.8-14.3,7c-3.1,1.4-6.3,2.4-9.7,2.4c-3.6,0-6.7-1.4-9.1-4.1c-2.4-2.6-4.1-5.6-5.4-8.9c-2.9-7.5-5.7-15-8.5-22.5
		c-1.6-4.3-2.4-8.8-2-13.4c0.4-4,2-7.6,4.8-10.6c2.9-3.2,6.6-4,10.7-3.1C119.8,2718.4,120.6,2718.7,121.1,2718.8z"/>
	<path class="st0" d="M151.6,2785.1c1.4-3.8,3.7-7.3,7.5-9.6c6.8-4.3,14.3-1.7,17,5.8c2.8,7.9-1.2,18.3-8.5,22.4
		c-7.1,4-14.7,0.6-16.7-7.4C150,2792.6,150.3,2789,151.6,2785.1z"/>
	<path class="st0" d="M100.4,2768.6c-1.7,4.3-4.3,7.8-8.4,10c-6.2,3.4-12.9,1-15.7-5.5c-3.4-8.2,0.7-19.5,8.7-23.5
		c6.5-3.3,13.3-0.6,15.7,6.3C102.2,2760.1,101.9,2764.4,100.4,2768.6z"/>
	<path class="st0" d="M92.5,2791.7c1.7-4.3,4.5-8.1,9.1-10.2c5.9-2.7,12-0.4,14.6,5.5c1.8,3.9,1.8,8,0.7,12
		c-1.3,4.6-3.7,8.4-7.7,11.1c-7.2,4.8-15.4,1.7-17.6-6.7C90.7,2799.5,91.1,2795.7,92.5,2791.7z"/>
	<path class="st0" d="M122,2802.7c1.6-4.1,4.1-7.5,8-9.7c6.7-3.9,14-1.1,16.4,6.4c1.7,5.4,0.8,10.6-1.9,15.5
		c-1.6,2.9-3.8,5.2-6.7,6.8c-6.7,3.7-13.9,0.9-16.3-6.4C120.1,2811,120.5,2806.9,122,2802.7z"/>
</g>
<g>
	<path class="st0" d="M-48.7,2760.7c4.6,1.4,8.3,3.6,11.9,6c2.2,1.4,4.4,2.9,6.5,4.4c2.1,1.5,4.4,2.1,7,2c3.8-0.2,7.7-0.3,11.5-0.3
		c3,0,6,0.2,8.8,1c7.8,2.2,11.1,8.1,9.1,15.9c-1.4,5.6-4.6,10-9.1,13.7c-3.4,2.8-7.2,5.2-11,7.4c-4.6,2.7-9.1,5.4-13.8,8
		c-3,1.7-6.1,2.9-9.5,3.1c-3.6,0.3-6.7-0.9-9.4-3.4c-2.5-2.4-4.5-5.3-6-8.5c-3.4-7.2-6.8-14.5-10.1-21.8c-1.9-4.2-3.1-8.6-2.9-13.2
		c0.1-4.1,1.5-7.7,4-10.9c2.7-3.4,6.3-4.5,10.4-3.9C-50.1,2760.4-49.2,2760.6-48.7,2760.7z"/>
	<path class="st0" d="M-13.6,2824.7c1.1-3.9,3.2-7.5,6.8-10.1c6.4-4.8,14.1-2.7,17.4,4.6c3.4,7.6,0.2,18.4-6.8,23
		c-6.8,4.5-14.6,1.7-17.2-6.2C-14.6,2832.3-14.6,2828.6-13.6,2824.7z"/>
	<path class="st0" d="M-65.9,2811.9c-1.3,4.4-3.7,8.1-7.6,10.6c-6,3.8-12.8,1.9-16-4.4c-4-7.9-0.7-19.5,7-24.1
		c6.2-3.7,13.2-1.5,16.1,5.2C-64.7,2803.3-64.7,2807.5-65.9,2811.9z"/>
	<path class="st0" d="M-72,2835.5c1.4-4.5,4-8.4,8.4-10.8c5.7-3.1,11.9-1.3,15,4.4c2,3.8,2.4,7.8,1.6,12c-0.9,4.7-3.1,8.7-6.9,11.6
		c-6.8,5.3-15.2,2.8-18-5.5C-73.3,2843.4-73.2,2839.6-72,2835.5z"/>
	<path class="st0" d="M-41.9,2844.3c1.3-4.2,3.5-7.8,7.2-10.3c6.5-4.3,13.9-2.1,16.8,5.2c2.1,5.3,1.6,10.5-0.8,15.6
		c-1.4,3-3.4,5.4-6.2,7.2c-6.4,4.2-13.8,1.9-16.7-5.2C-43.1,2852.8-43.1,2848.6-41.9,2844.3z"/>
</g>
<g>
	<path class="st0" d="M55.5,2563.8c4.6,1.4,8.3,3.6,11.9,6c2.2,1.4,4.3,2.9,6.5,4.4c2.1,1.5,4.4,2.1,7,2c3.8-0.2,7.7-0.2,11.5-0.3
		c3,0,6,0.2,8.8,1.1c7.8,2.2,11.1,8.1,9.1,16c-1.4,5.6-4.7,10-9.1,13.6c-3.4,2.8-7.2,5.1-11,7.4c-4.6,2.7-9.1,5.4-13.8,8
		c-3,1.7-6.1,2.9-9.6,3.1c-3.6,0.2-6.7-1-9.3-3.5c-2.5-2.5-4.5-5.3-6-8.5c-3.4-7.2-6.8-14.5-10-21.8c-1.9-4.2-3-8.6-2.9-13.2
		c0.1-4.1,1.5-7.7,4-10.9c2.7-3.4,6.3-4.5,10.5-3.8C54.1,2563.5,55,2563.7,55.5,2563.8z"/>
	<path class="st0" d="M90.5,2627.9c1.1-3.9,3.2-7.5,6.8-10.1c6.5-4.8,14.1-2.7,17.3,4.6c3.3,7.7,0.1,18.4-6.9,22.9
		c-6.8,4.5-14.6,1.6-17.2-6.3C89.4,2635.5,89.5,2631.8,90.5,2627.9z"/>
	<path class="st0" d="M38.3,2615c-1.4,4.4-3.7,8.1-7.7,10.6c-6,3.8-12.8,1.9-16-4.5c-4-7.9-0.6-19.6,7-24.1
		c6.3-3.7,13.2-1.5,16.1,5.2C39.5,2606.4,39.5,2610.6,38.3,2615z"/>
	<path class="st0" d="M32,2638.5c1.4-4.4,4-8.4,8.4-10.8c5.7-3.1,11.9-1.2,15,4.5c2,3.8,2.4,7.8,1.5,12c-0.9,4.7-3.1,8.7-6.9,11.6
		c-6.9,5.3-15.2,2.7-18-5.5C30.7,2646.5,30.9,2642.6,32,2638.5z"/>
	<path class="st0" d="M62.2,2647.5c1.3-4.2,3.5-7.8,7.3-10.3c6.5-4.3,13.9-2,16.8,5.2c2.1,5.3,1.5,10.5-0.9,15.6
		c-1.4,3-3.4,5.4-6.2,7.2c-6.4,4.2-13.8,1.8-16.7-5.2C60.9,2655.9,60.9,2651.8,62.2,2647.5z"/>
</g>
<g>
	<path class="st0" d="M1210,223.1c-4.6,1.5-8.2,3.8-11.8,6.2c-2.2,1.5-4.3,3-6.4,4.5c-2.1,1.5-4.4,2.2-6.9,2.1
		c-3.8-0.1-7.7-0.1-11.5-0.1c-3,0-5.9,0.3-8.8,1.2c-7.7,2.4-11,8.3-8.8,16.1c1.5,5.6,4.8,9.9,9.4,13.5c3.5,2.7,7.3,5,11.1,7.2
		c4.6,2.6,9.2,5.2,13.9,7.8c3,1.6,6.2,2.8,9.6,2.9c3.6,0.2,6.7-1.1,9.3-3.6c2.5-2.5,4.4-5.4,5.9-8.6c3.3-7.3,6.5-14.6,9.6-22
		c1.8-4.2,2.9-8.6,2.7-13.3c-0.2-4.1-1.6-7.7-4.2-10.8c-2.8-3.3-6.3-4.4-10.5-3.6C1211.4,222.7,1210.5,223,1210,223.1z"/>
	<path class="st0" d="M1176.2,287.8c-1.2-3.9-3.4-7.4-7-10c-6.5-4.7-14.2-2.5-17.3,4.9c-3.2,7.7,0.2,18.4,7.3,22.8
		c6.9,4.3,14.6,1.4,17.1-6.6C1177.4,295.3,1177.2,291.7,1176.2,287.8z"/>
	<path class="st0" d="M1228.2,273.9c1.4,4.4,3.8,8,7.9,10.5c6.1,3.7,12.9,1.7,15.9-4.7c3.9-8,0.3-19.6-7.4-24
		c-6.3-3.6-13.2-1.2-16,5.5C1226.8,265.4,1226.9,269.6,1228.2,273.9z"/>
	<path class="st0" d="M1234.8,297.4c-1.5-4.4-4.1-8.3-8.6-10.6c-5.7-3-11.9-1-14.9,4.7c-2,3.8-2.2,7.9-1.3,12
		c1,4.7,3.3,8.6,7.1,11.5c6.9,5.2,15.3,2.4,17.9-5.8C1236.2,305.3,1236,301.5,1234.8,297.4z"/>
	<path class="st0" d="M1204.8,306.9c-1.4-4.2-3.7-7.7-7.5-10.1c-6.5-4.2-14-1.8-16.7,5.5c-2,5.3-1.3,10.6,1.1,15.6
		c1.4,2.9,3.5,5.3,6.3,7.1c6.5,4.1,13.8,1.6,16.6-5.5C1206.3,315.3,1206.1,311.1,1204.8,306.9z"/>
</g>
<g>
	<path class="st0" d="M1346.4,85c-4.5,1.6-8.1,4-11.6,6.5c-2.1,1.5-4.2,3.1-6.3,4.7c-2,1.6-4.3,2.3-6.9,2.3c-3.8,0-7.7,0.1-11.5,0.2
		c-3,0.1-5.9,0.5-8.8,1.4c-7.7,2.6-10.8,8.6-8.4,16.3c1.7,5.5,5.1,9.8,9.7,13.2c3.6,2.6,7.4,4.8,11.3,6.9c4.7,2.5,9.4,5,14.1,7.4
		c3,1.5,6.2,2.6,9.7,2.7c3.6,0.1,6.7-1.2,9.2-3.9c2.4-2.6,4.3-5.5,5.6-8.7c3.1-7.4,6.1-14.8,9.1-22.2c1.7-4.3,2.7-8.7,2.3-13.3
		c-0.3-4.1-1.8-7.6-4.5-10.7c-2.8-3.3-6.5-4.2-10.6-3.4C1347.8,84.6,1346.9,84.9,1346.4,85z"/>
	<path class="st0" d="M1314.2,150.5c-1.3-3.8-3.6-7.3-7.2-9.8c-6.7-4.5-14.2-2.1-17.1,5.4c-3,7.8,0.7,18.4,7.9,22.6
		c7,4.2,14.6,1,16.9-7C1315.6,158,1315.4,154.4,1314.2,150.5z"/>
	<path class="st0" d="M1365.9,135.3c1.5,4.3,4.1,7.9,8.1,10.3c6.2,3.5,12.9,1.3,15.8-5.1c3.7-8.1-0.2-19.6-8.1-23.8
		c-6.4-3.4-13.3-0.9-15.9,5.9C1364.3,126.8,1364.5,131.1,1365.9,135.3z"/>
	<path class="st0" d="M1373.1,158.6c-1.6-4.4-4.3-8.2-8.9-10.4c-5.8-2.8-12-0.7-14.8,5.1c-1.9,3.9-2,7.9-1,12
		c1.1,4.6,3.5,8.5,7.4,11.3c7.1,5,15.3,2,17.7-6.3C1374.8,166.5,1374.5,162.7,1373.1,158.6z"/>
	<path class="st0" d="M1343.4,168.9c-1.5-4.1-3.9-7.6-7.7-9.9c-6.6-4-14-1.4-16.6,5.9c-1.9,5.4-1.1,10.6,1.5,15.6
		c1.5,2.9,3.6,5.3,6.5,6.9c6.6,3.9,13.9,1.2,16.4-5.9C1345,177.2,1344.8,173.1,1343.4,168.9z"/>
</g>
<g>
	<path class="st0" d="M1441.6,510.1c-4.8,0.3-8.9,1.6-13,3.1c-2.5,0.9-4.9,1.8-7.3,2.8c-2.4,0.9-4.8,1-7.3,0.3c-3.7-1-7.4-2-11.2-3
		c-2.9-0.7-5.8-1.2-8.8-1c-8.1,0.4-12.7,5.3-12.6,13.4c0.1,5.8,2.2,10.8,5.7,15.4c2.7,3.5,5.8,6.7,9,9.7c3.8,3.7,7.6,7.4,11.5,11
		c2.5,2.3,5.3,4.2,8.6,5.2c3.5,1.1,6.8,0.6,9.9-1.2c3-1.8,5.6-4.1,7.8-6.9c5-6.2,10-12.5,14.8-18.9c2.8-3.6,5-7.6,5.9-12.2
		c0.8-4,0.3-7.8-1.4-11.5c-1.8-3.9-5.1-5.8-9.3-6.2C1443.1,510.1,1442.1,510.1,1441.6,510.1z"/>
	<path class="st0" d="M1392.6,564.2c-0.2-4-1.4-8-4.2-11.4c-5.2-6.1-13.1-5.9-17.9,0.5c-5,6.7-4.4,17.8,1.3,23.9
		c5.6,5.9,13.8,5,18.2-2.1C1391.9,571.8,1392.7,568.3,1392.6,564.2z"/>
	<path class="st0" d="M1446.5,563.8c0.3,4.6,1.7,8.7,5,12.1c4.9,5.1,12,4.8,16.6-0.6c5.7-6.8,5.2-18.9-1.2-25.1
		c-5.2-5.1-12.5-4.5-16.9,1.3C1447.3,555.2,1446.3,559.3,1446.5,563.8z"/>
	<path class="st0" d="M1447,588.2c-0.4-4.7-1.9-9.1-5.7-12.4c-4.8-4.3-11.3-4-15.6,0.9c-2.9,3.2-4.1,7-4.3,11.3
		c-0.2,4.8,1,9.2,4,12.9c5.4,6.7,14.2,6.2,18.8-1.2C1446.4,596.2,1447.2,592.4,1447,588.2z"/>
	<path class="st0" d="M1415.7,589.8c-0.3-4.4-1.6-8.4-4.7-11.7c-5.3-5.7-13.1-5.2-17.6,1.1c-3.3,4.7-3.9,9.9-2.8,15.4
		c0.7,3.2,2.1,6.1,4.3,8.4c5.2,5.5,13,5,17.4-1.2C1414.9,598.3,1415.8,594.3,1415.7,589.8z"/>
</g>
<g>
	<path class="st0" d="M1389,662.7c-4.8,0.3-8.9,1.6-13,3.1c-2.5,0.9-4.9,1.8-7.3,2.8c-2.4,0.9-4.8,1-7.3,0.3c-3.7-1-7.4-2-11.2-3
		c-2.9-0.7-5.8-1.2-8.8-1c-8.1,0.4-12.7,5.3-12.6,13.4c0.1,5.8,2.2,10.8,5.7,15.4c2.7,3.5,5.8,6.7,9,9.7c3.8,3.7,7.6,7.4,11.5,11
		c2.5,2.3,5.3,4.2,8.6,5.2c3.5,1.1,6.8,0.6,9.9-1.2c3-1.8,5.6-4.1,7.8-6.9c5-6.2,10-12.5,14.8-18.9c2.8-3.6,5-7.6,5.9-12.2
		c0.8-4,0.3-7.8-1.4-11.5c-1.8-3.9-5.1-5.8-9.3-6.2C1390.4,662.7,1389.5,662.7,1389,662.7z"/>
	<path class="st0" d="M1340,716.9c-0.2-4-1.4-8-4.2-11.4c-5.2-6.1-13.1-5.9-17.9,0.5c-5,6.7-4.4,17.8,1.3,23.9
		c5.6,5.9,13.8,5,18.2-2.1C1339.3,724.5,1340.1,720.9,1340,716.9z"/>
	<path class="st0" d="M1393.9,716.5c0.3,4.6,1.7,8.7,5,12.1c4.9,5.1,12,4.8,16.6-0.6c5.7-6.8,5.2-18.9-1.2-25.1
		c-5.2-5.1-12.5-4.5-16.9,1.3C1394.7,707.8,1393.7,712,1393.9,716.5z"/>
	<path class="st0" d="M1394.4,740.9c-0.4-4.7-1.9-9.1-5.7-12.4c-4.8-4.3-11.3-4-15.6,0.9c-2.9,3.2-4.1,7-4.3,11.3
		c-0.2,4.8,1,9.2,4,12.9c5.4,6.7,14.2,6.2,18.8-1.2C1393.8,748.9,1394.6,745.1,1394.4,740.9z"/>
	<path class="st0" d="M1363,742.5c-0.3-4.4-1.6-8.4-4.7-11.7c-5.3-5.7-13.1-5.2-17.6,1.1c-3.3,4.7-3.9,9.9-2.8,15.4
		c0.7,3.2,2.1,6.1,4.3,8.4c5.2,5.5,13,5,17.4-1.2C1362.3,751,1363.2,746.9,1363,742.5z"/>
</g>
<g>
	<path class="st0" d="M1206.3,21.6c-4.7-0.8-9-0.6-13.4-0.1c-2.6,0.3-5.2,0.6-7.8,1c-2.5,0.3-4.9-0.1-7.1-1.4
		c-3.3-1.9-6.7-3.7-10.1-5.5c-2.6-1.4-5.4-2.5-8.4-3.1c-8-1.6-13.6,2.1-15.4,10c-1.3,5.7-0.4,11,1.9,16.3c1.8,4.1,4,7.8,6.4,11.6
		c2.9,4.5,5.7,9,8.6,13.4c1.9,2.8,4.1,5.3,7.1,7.1c3.1,1.9,6.4,2.2,9.9,1.2c3.4-1,6.4-2.7,9.2-4.8c6.4-4.9,12.6-9.8,18.9-14.8
		c3.6-2.9,6.6-6.2,8.6-10.5c1.7-3.7,2.2-7.5,1.4-11.5c-0.9-4.2-3.5-6.8-7.5-8.2C1207.6,22,1206.7,21.8,1206.3,21.6z"/>
	<path class="st0" d="M1145.9,62.6c0.8-4,0.5-8.1-1.4-12.1c-3.6-7.2-11.3-8.9-17.5-3.8c-6.5,5.3-8.5,16.3-4.4,23.5
		c4.1,7.1,12.2,8.1,18.1,2.3C1143.4,69.9,1145,66.6,1145.9,62.6z"/>
	<path class="st0" d="M1198.3,75c-0.8,4.5-0.4,8.9,2,12.9c3.6,6.1,10.5,7.5,16.3,3.4c7.2-5.2,9.5-17.1,4.8-24.6
		c-3.9-6.2-11.1-7.3-16.7-2.7C1201.1,66.8,1199.2,70.6,1198.3,75z"/>
	<path class="st0" d="M1193,98.8c0.8-4.6,0.3-9.3-2.6-13.4c-3.6-5.4-10-6.5-15.4-2.9c-3.5,2.4-5.7,5.9-6.8,9.9
		c-1.3,4.6-1.2,9.1,0.9,13.5c3.7,7.8,12.3,9.4,18.5,3.3C1190.5,106.5,1192.2,103,1193,98.8z"/>
	<path class="st0" d="M1162.1,93c0.8-4.3,0.4-8.5-1.8-12.4c-3.8-6.8-11.5-8.2-17.3-3c-4.3,3.8-6.2,8.7-6.4,14.3
		c-0.1,3.3,0.6,6.4,2.2,9.2c3.8,6.6,11.4,7.9,17.2,3C1159.4,101.1,1161.3,97.4,1162.1,93z"/>
</g>
<g>
	<path class="st0" d="M1286.6,419.7c-4.4,2-7.8,4.6-11.1,7.5c-2,1.7-4,3.4-5.9,5.2c-1.9,1.7-4.1,2.7-6.7,2.9
		c-3.8,0.3-7.7,0.7-11.5,1.1c-3,0.3-5.9,1-8.6,2.1c-7.4,3.2-10,9.4-7.1,17c2.1,5.4,5.9,9.4,10.7,12.4c3.8,2.3,7.7,4.2,11.8,6
		c4.9,2.1,9.7,4.2,14.7,6.2c3.1,1.3,6.4,2.1,9.9,1.9c3.6-0.2,6.6-1.8,8.8-4.6c2.2-2.7,3.8-5.9,4.9-9.2c2.5-7.6,4.9-15.2,7.2-22.9
		c1.3-4.4,2-8.9,1.2-13.5c-0.6-4-2.4-7.5-5.3-10.3c-3.1-3-6.8-3.7-10.8-2.5C1288,419.2,1287.1,419.6,1286.6,419.7z"/>
	<path class="st0" d="M1259.8,487.6c-1.6-3.7-4.1-7-8-9.2c-7-3.9-14.4-0.9-16.6,6.8c-2.4,8,2.2,18.3,9.7,21.9
		c7.3,3.6,14.7-0.2,16.3-8.3C1261.8,495,1261.3,491.4,1259.8,487.6z"/>
	<path class="st0" d="M1310.1,468.3c1.9,4.2,4.7,7.6,8.9,9.6c6.4,3,13,0.3,15.4-6.4c3-8.4-1.8-19.5-9.9-23
		c-6.7-2.9-13.3,0.2-15.3,7.2C1307.8,460,1308.4,464.2,1310.1,468.3z"/>
	<path class="st0" d="M1319.2,491c-2-4.2-5-7.8-9.7-9.6c-6-2.4-12,0.3-14.3,6.3c-1.6,4-1.4,8,0,12.1c1.5,4.5,4.2,8.2,8.3,10.7
		c7.5,4.4,15.4,0.8,17.2-7.7C1321.4,498.7,1320.8,494.9,1319.2,491z"/>
	<path class="st0" d="M1290.4,503.6c-1.8-4-4.5-7.3-8.5-9.3c-6.9-3.5-14.1-0.3-16,7.2c-1.4,5.5-0.2,10.6,2.8,15.4
		c1.7,2.8,4.1,4.9,7,6.4c6.9,3.3,13.9,0.1,15.9-7.2C1292.7,511.8,1292.1,507.7,1290.4,503.6z"/>
</g>
<g>
	<path class="st0" d="M1379.1,3630.1c-4.3-2-8.6-2.9-12.9-3.6c-2.6-0.4-5.2-0.8-7.8-1.1c-2.6-0.3-4.7-1.4-6.5-3.2
		c-2.7-2.7-5.5-5.4-8.3-8c-2.2-2-4.5-3.9-7.2-5.2c-7.3-3.6-13.7-1.5-17.5,5.6c-2.7,5.1-3.3,10.5-2.5,16.2c0.7,4.4,1.8,8.6,3.1,12.9
		c1.6,5.1,3.1,10.2,4.8,15.2c1.1,3.2,2.6,6.2,5,8.7c2.5,2.6,5.6,3.8,9.2,3.7c3.5-0.1,6.9-0.9,10.2-2.2c7.4-3,14.8-6.2,22.1-9.4
		c4.2-1.8,8-4.3,11.1-7.8c2.6-3.1,4.1-6.7,4.4-10.7c0.3-4.3-1.6-7.5-5.1-9.9C1380.3,3630.8,1379.5,3630.4,1379.1,3630.1z"/>
	<path class="st0" d="M1310,3653.8c1.8-3.6,2.7-7.7,1.8-12.1c-1.5-7.9-8.6-11.5-15.9-8.3c-7.6,3.4-12.5,13.5-10.4,21.6
		c2,7.9,9.7,11.1,16.9,7C1305.7,3660.1,1308.1,3657.4,1310,3653.8z"/>
	<path class="st0" d="M1357.3,3679.5c-2,4.2-2.7,8.5-1.5,13c1.9,6.9,8.2,10.1,14.8,7.5c8.3-3.2,13.7-14,11.1-22.5
		c-2.1-7-8.8-10-15.4-7C1362.2,3672.4,1359.3,3675.5,1357.3,3679.5z"/>
	<path class="st0" d="M1346,3701.1c1.9-4.3,2.7-8.9,1.1-13.6c-2.1-6.1-8-8.9-14.1-6.8c-4.1,1.4-7,4.2-9.2,7.8
		c-2.5,4.1-3.6,8.5-2.7,13.2c1.5,8.5,9.4,12.3,17,8.1C1341.6,3707.8,1344.1,3704.9,1346,3701.1z"/>
	<path class="st0" d="M1317.7,3687.4c1.9-3.9,2.6-8.1,1.6-12.5c-1.9-7.6-8.9-10.9-15.9-7.5c-5.1,2.5-8.2,6.7-9.9,12.1
		c-1,3.1-1.1,6.3-0.3,9.5c1.9,7.4,8.9,10.7,15.8,7.4C1312.9,3694.4,1315.7,3691.3,1317.7,3687.4z"/>
</g>
<g>
	<path class="st0" d="M1241.3,3488.4c-4.3-2-8.6-2.9-12.9-3.6c-2.6-0.4-5.2-0.8-7.8-1.1c-2.5-0.3-4.7-1.4-6.5-3.2
		c-2.7-2.7-5.5-5.4-8.3-8c-2.2-2-4.5-3.9-7.2-5.2c-7.3-3.6-13.7-1.5-17.5,5.6c-2.7,5.1-3.3,10.5-2.5,16.2c0.7,4.4,1.8,8.6,3.1,12.9
		c1.6,5.1,3.1,10.2,4.8,15.2c1.1,3.2,2.6,6.2,5,8.7c2.5,2.6,5.6,3.8,9.2,3.7c3.5-0.1,6.9-0.9,10.2-2.2c7.4-3,14.8-6.2,22.1-9.4
		c4.2-1.8,8-4.3,11.1-7.8c2.6-3.1,4.1-6.7,4.4-10.7c0.3-4.3-1.6-7.5-5.1-9.9C1242.6,3489.1,1241.8,3488.6,1241.3,3488.4z"/>
	<path class="st0" d="M1172.3,3512c1.8-3.6,2.7-7.7,1.8-12.1c-1.5-7.9-8.6-11.5-15.9-8.3c-7.6,3.4-12.5,13.5-10.4,21.6
		c2,7.9,9.7,11.1,16.9,7C1167.9,3518.3,1170.3,3515.6,1172.3,3512z"/>
	<path class="st0" d="M1219.6,3537.7c-2,4.2-2.7,8.5-1.5,13c1.9,6.9,8.2,10.1,14.8,7.5c8.3-3.2,13.7-14,11.1-22.5
		c-2.1-7-8.8-10-15.4-7C1224.5,3530.6,1221.6,3533.7,1219.6,3537.7z"/>
	<path class="st0" d="M1208.2,3559.3c1.9-4.3,2.7-8.9,1.1-13.6c-2.1-6.1-8-8.9-14.1-6.8c-4.1,1.4-7,4.2-9.2,7.8
		c-2.5,4.1-3.6,8.5-2.7,13.2c1.5,8.5,9.4,12.3,17,8.1C1203.8,3566.1,1206.3,3563.1,1208.2,3559.3z"/>
	<path class="st0" d="M1180,3545.6c1.9-3.9,2.6-8.1,1.6-12.5c-1.9-7.6-8.9-10.9-15.9-7.5c-5.1,2.5-8.2,6.7-9.9,12.1
		c-1,3.1-1.1,6.3-0.3,9.5c1.9,7.4,8.9,10.7,15.8,7.4C1175.2,3552.7,1178,3549.6,1180,3545.6z"/>
</g>
<g>
	<path class="st0" d="M1456.3,3205.1c-4.7-1-9-0.8-13.3-0.5c-2.6,0.2-5.2,0.4-7.8,0.7c-2.6,0.3-4.9-0.3-7.1-1.6
		c-3.3-2-6.6-3.9-10-5.8c-2.6-1.5-5.3-2.7-8.3-3.4c-7.9-1.8-13.6,1.7-15.7,9.5c-1.5,5.6-0.8,11,1.4,16.3c1.7,4.1,3.8,8,6,11.8
		c2.7,4.6,5.4,9.2,8.2,13.7c1.8,2.9,4,5.5,6.9,7.3c3.1,2,6.4,2.4,9.9,1.5c3.4-0.9,6.5-2.5,9.4-4.5c6.5-4.7,12.9-9.4,19.3-14.3
		c3.7-2.8,6.8-6,8.9-10.2c1.8-3.6,2.4-7.5,1.7-11.5c-0.7-4.3-3.3-6.9-7.3-8.4C1457.7,3205.5,1456.8,3205.3,1456.3,3205.1z"/>
	<path class="st0" d="M1394.7,3244.2c0.9-3.9,0.8-8.1-1-12.1c-3.3-7.3-11.1-9.2-17.4-4.3c-6.6,5.1-9,16-5.1,23.4
		c3.8,7.2,12,8.5,18.1,2.8C1392,3251.4,1393.7,3248.2,1394.7,3244.2z"/>
	<path class="st0" d="M1446.7,3258.2c-0.9,4.5-0.7,8.9,1.6,13c3.4,6.2,10.3,7.9,16.2,3.9c7.3-5,10-16.8,5.5-24.5
		c-3.7-6.3-10.9-7.7-16.6-3.2C1449.8,3250.1,1447.7,3253.8,1446.7,3258.2z"/>
	<path class="st0" d="M1440.7,3281.9c0.9-4.6,0.6-9.2-2.1-13.5c-3.5-5.5-9.8-6.8-15.3-3.3c-3.6,2.3-5.9,5.7-7.1,9.7
		c-1.4,4.5-1.5,9.1,0.4,13.5c3.4,7.9,12,9.7,18.4,3.9C1438,3289.4,1439.7,3286,1440.7,3281.9z"/>
	<path class="st0" d="M1410,3275.1c0.9-4.3,0.7-8.5-1.4-12.5c-3.6-6.9-11.2-8.5-17.2-3.6c-4.4,3.6-6.4,8.5-6.8,14.1
		c-0.2,3.3,0.4,6.4,1.9,9.3c3.6,6.7,11.2,8.3,17.1,3.5C1407,3283.1,1409,3279.4,1410,3275.1z"/>
</g>
<g>
	<path class="st0" d="M1292,3274.5c-4.3-2-8.6-2.9-12.9-3.6c-2.6-0.4-5.2-0.8-7.8-1.1c-2.6-0.3-4.7-1.4-6.5-3.2
		c-2.7-2.7-5.5-5.4-8.3-8c-2.2-2-4.5-3.9-7.2-5.2c-7.3-3.6-13.7-1.5-17.5,5.6c-2.7,5.1-3.3,10.5-2.5,16.2c0.7,4.4,1.8,8.6,3.1,12.9
		c1.6,5.1,3.1,10.2,4.8,15.2c1.1,3.2,2.6,6.2,5,8.7c2.5,2.6,5.6,3.8,9.2,3.7c3.5-0.1,6.9-0.9,10.2-2.2c7.4-3,14.8-6.2,22.1-9.4
		c4.2-1.8,8-4.3,11.1-7.8c2.6-3.1,4.1-6.7,4.4-10.7c0.3-4.3-1.6-7.5-5.1-9.9C1293.2,3275.2,1292.4,3274.7,1292,3274.5z"/>
	<path class="st0" d="M1222.9,3298.1c1.8-3.6,2.7-7.7,1.8-12.1c-1.5-7.9-8.6-11.5-15.9-8.3c-7.6,3.4-12.5,13.5-10.4,21.6
		c2,7.9,9.7,11.1,16.9,7C1218.6,3304.4,1221,3301.7,1222.9,3298.1z"/>
	<path class="st0" d="M1270.2,3323.8c-2,4.2-2.7,8.5-1.5,13c1.9,6.9,8.2,10.1,14.8,7.5c8.3-3.2,13.7-14,11.1-22.5
		c-2.1-7-8.8-10-15.4-7C1275.1,3316.7,1272.2,3319.8,1270.2,3323.8z"/>
	<path class="st0" d="M1258.9,3345.4c1.9-4.3,2.7-8.9,1.1-13.6c-2.1-6.1-8-8.9-14.1-6.8c-4.1,1.4-7,4.2-9.2,7.8
		c-2.5,4.1-3.6,8.5-2.7,13.2c1.5,8.5,9.4,12.3,17,8.1C1254.4,3352.2,1256.9,3349.2,1258.9,3345.4z"/>
	<path class="st0" d="M1230.6,3331.7c1.9-3.9,2.6-8.1,1.6-12.5c-1.9-7.6-8.9-10.9-15.9-7.5c-5.1,2.5-8.2,6.7-9.9,12.1
		c-1,3.1-1.1,6.3-0.3,9.5c1.9,7.4,8.9,10.7,15.8,7.4C1225.8,3338.8,1228.6,3335.7,1230.6,3331.7z"/>
</g>
<g>
	<path class="st0" d="M1366,3069.9c-4.3-2-8.6-2.9-12.9-3.6c-2.6-0.4-5.2-0.8-7.8-1.1c-2.6-0.3-4.7-1.4-6.5-3.2
		c-2.7-2.7-5.5-5.4-8.3-8c-2.2-2-4.5-3.9-7.2-5.2c-7.3-3.6-13.7-1.5-17.5,5.6c-2.7,5.1-3.3,10.5-2.5,16.2c0.7,4.4,1.8,8.6,3.1,12.9
		c1.6,5.1,3.1,10.2,4.8,15.2c1.1,3.2,2.6,6.2,5,8.7c2.5,2.6,5.6,3.8,9.2,3.7c3.5-0.1,6.9-0.9,10.2-2.2c7.4-3,14.8-6.2,22.1-9.4
		c4.2-1.8,8-4.3,11.1-7.8c2.6-3.1,4.1-6.7,4.4-10.7c0.3-4.3-1.6-7.5-5.1-9.9C1367.3,3070.6,1366.5,3070.2,1366,3069.9z"/>
	<path class="st0" d="M1297,3093.6c1.8-3.6,2.7-7.7,1.8-12.1c-1.5-7.9-8.6-11.5-15.9-8.3c-7.6,3.4-12.5,13.5-10.4,21.6
		c2,7.9,9.7,11.1,16.9,7C1292.6,3099.9,1295,3097.2,1297,3093.6z"/>
	<path class="st0" d="M1344.3,3119.3c-2,4.2-2.7,8.5-1.5,13c1.9,6.9,8.2,10.1,14.8,7.5c8.3-3.2,13.7-14,11.1-22.5
		c-2.1-7-8.8-10-15.4-7C1349.1,3112.2,1346.3,3115.3,1344.3,3119.3z"/>
	<path class="st0" d="M1332.9,3140.9c1.9-4.3,2.7-8.9,1.1-13.6c-2.1-6.1-8-8.9-14.1-6.8c-4.1,1.4-7,4.2-9.2,7.8
		c-2.5,4.1-3.6,8.5-2.7,13.2c1.5,8.5,9.4,12.3,17,8.1C1328.5,3147.6,1331,3144.7,1332.9,3140.9z"/>
	<path class="st0" d="M1304.6,3127.2c1.9-3.9,2.6-8.1,1.6-12.5c-1.9-7.6-8.9-10.9-15.9-7.5c-5.1,2.5-8.2,6.7-9.9,12.1
		c-1,3.1-1.1,6.3-0.3,9.5c1.9,7.4,8.9,10.7,15.8,7.4C1299.9,3134.2,1302.7,3131.1,1304.6,3127.2z"/>
</g>
<g>
	<path class="st0" d="M1473.2,2849c-4.3-2-8.6-2.9-12.9-3.6c-2.6-0.4-5.2-0.8-7.8-1.1c-2.6-0.3-4.7-1.4-6.5-3.2
		c-2.7-2.7-5.5-5.4-8.3-8c-2.2-2-4.5-3.9-7.2-5.2c-7.3-3.6-13.7-1.5-17.5,5.6c-2.7,5.1-3.3,10.5-2.5,16.2c0.7,4.4,1.8,8.6,3.1,12.9
		c1.6,5.1,3.1,10.2,4.8,15.2c1.1,3.2,2.6,6.2,5,8.7c2.5,2.6,5.6,3.8,9.2,3.7c3.5-0.1,6.9-0.9,10.2-2.2c7.4-3,14.8-6.2,22.1-9.4
		c4.2-1.8,8-4.3,11.1-7.8c2.6-3.1,4.1-6.7,4.4-10.7c0.3-4.3-1.6-7.5-5.1-9.9C1474.5,2849.7,1473.7,2849.3,1473.2,2849z"/>
	<path class="st0" d="M1404.2,2872.6c1.8-3.6,2.7-7.7,1.8-12.1c-1.5-7.9-8.6-11.5-15.9-8.3c-7.6,3.4-12.5,13.5-10.4,21.6
		c2,7.9,9.7,11.1,16.9,7C1399.8,2879,1402.2,2876.2,1404.2,2872.6z"/>
	<path class="st0" d="M1451.5,2898.4c-2,4.2-2.7,8.5-1.5,13c1.9,6.9,8.2,10.1,14.8,7.5c8.3-3.2,13.7-14,11.1-22.5
		c-2.1-7-8.8-10-15.4-7C1456.4,2891.2,1453.5,2894.4,1451.5,2898.4z"/>
	<path class="st0" d="M1440.1,2920c1.9-4.3,2.7-8.9,1.1-13.6c-2.1-6.1-8-8.9-14.1-6.8c-4.1,1.4-7,4.2-9.2,7.8
		c-2.5,4.1-3.6,8.5-2.7,13.2c1.5,8.5,9.4,12.3,17,8.1C1435.7,2926.7,1438.2,2923.8,1440.1,2920z"/>
	<path class="st0" d="M1411.9,2906.2c1.9-3.9,2.6-8.1,1.6-12.5c-1.9-7.6-8.9-10.9-15.9-7.5c-5.1,2.5-8.2,6.7-9.9,12.1
		c-1,3.1-1.1,6.3-0.3,9.5c1.9,7.4,8.9,10.7,15.8,7.4C1407.1,2913.3,1409.9,2910.2,1411.9,2906.2z"/>
</g>
<g>
	<path class="st0" d="M1618.5,2574.3c-4.3-2-8.6-2.9-12.9-3.6c-2.6-0.4-5.2-0.8-7.8-1.1c-2.6-0.3-4.7-1.4-6.5-3.2
		c-2.7-2.7-5.5-5.4-8.3-8c-2.2-2-4.5-3.9-7.2-5.2c-7.3-3.6-13.7-1.5-17.5,5.6c-2.7,5.1-3.3,10.5-2.5,16.2c0.7,4.4,1.8,8.6,3.1,12.9
		c1.6,5.1,3.1,10.2,4.8,15.2c1.1,3.2,2.6,6.2,5,8.7c2.5,2.6,5.6,3.8,9.2,3.7c3.5-0.1,6.9-0.9,10.2-2.2c7.4-3,14.8-6.2,22.1-9.4
		c4.2-1.8,8-4.3,11.1-7.8c2.6-3.1,4.1-6.7,4.4-10.7c0.3-4.3-1.6-7.5-5.1-9.9C1619.7,2575,1618.9,2574.6,1618.5,2574.3z"/>
	<path class="st0" d="M1549.4,2598c1.8-3.6,2.7-7.7,1.8-12.1c-1.5-7.9-8.6-11.5-15.9-8.3c-7.6,3.4-12.5,13.5-10.4,21.6
		c2,7.9,9.7,11.1,16.9,7C1545.1,2604.3,1547.5,2601.6,1549.4,2598z"/>
	<path class="st0" d="M1596.7,2623.7c-2,4.2-2.7,8.5-1.5,13c1.9,6.9,8.2,10.1,14.8,7.5c8.3-3.2,13.7-14,11.1-22.5
		c-2.1-7-8.8-10-15.4-7C1601.6,2616.6,1598.7,2619.7,1596.7,2623.7z"/>
	<path class="st0" d="M1585.4,2645.3c1.9-4.3,2.7-8.9,1.1-13.6c-2.1-6.1-8-8.9-14.1-6.8c-4.1,1.4-7,4.2-9.2,7.8
		c-2.5,4.1-3.6,8.5-2.7,13.2c1.5,8.5,9.4,12.3,17,8.1C1581,2652,1583.5,2649.1,1585.4,2645.3z"/>
	<path class="st0" d="M1557.1,2631.6c1.9-3.9,2.6-8.1,1.6-12.5c-1.9-7.6-8.9-10.9-15.9-7.5c-5.1,2.5-8.2,6.7-9.9,12.1
		c-1,3.1-1.1,6.3-0.3,9.5c1.9,7.4,8.9,10.7,15.8,7.4C1552.3,2638.6,1555.1,2635.5,1557.1,2631.6z"/>
</g>
<g>
	<path class="st0" d="M1514.6,2975.1c-4.8,0-9,1.1-13.1,2.4c-2.5,0.8-5,1.5-7.5,2.4c-2.4,0.8-4.8,0.8-7.3-0.1
		c-3.6-1.3-7.3-2.4-11-3.6c-2.9-0.9-5.8-1.5-8.8-1.5c-8.1-0.1-13,4.6-13.3,12.7c-0.2,5.8,1.6,10.9,4.8,15.7c2.5,3.7,5.4,7,8.4,10.2
		c3.6,3.9,7.2,7.8,10.9,11.6c2.4,2.4,5,4.5,8.3,5.7c3.4,1.3,6.7,1,9.9-0.6c3.1-1.6,5.9-3.8,8.2-6.4c5.4-6,10.6-12,15.9-18
		c3-3.5,5.4-7.3,6.6-11.9c1-3.9,0.8-7.8-0.7-11.6c-1.6-4-4.7-6.1-8.9-6.7C1516,2975.2,1515.1,2975.1,1514.6,2975.1z"/>
	<path class="st0" d="M1462.6,3026.4c0-4-0.9-8.1-3.6-11.6c-4.8-6.4-12.8-6.7-17.9-0.5c-5.4,6.4-5.4,17.6,0,23.9
		c5.3,6.2,13.5,5.8,18.2-1.1C1461.5,3034,1462.5,3030.5,1462.6,3026.4z"/>
	<path class="st0" d="M1516.4,3029c0,4.6,1.2,8.8,4.3,12.4c4.7,5.4,11.7,5.5,16.6,0.3c6.1-6.5,6.2-18.6,0.2-25.1
		c-4.9-5.4-12.2-5.2-16.9,0.4C1517.7,3020.4,1516.5,3024.5,1516.4,3029z"/>
	<path class="st0" d="M1515.6,3053.4c-0.1-4.7-1.4-9.1-5-12.7c-4.6-4.6-11.1-4.6-15.6,0c-3,3-4.5,6.8-4.9,11
		c-0.4,4.7,0.5,9.2,3.3,13.1c5.1,7,13.8,7,18.8-0.1C1514.6,3061.4,1515.5,3057.6,1515.6,3053.4z"/>
	<path class="st0" d="M1484.2,3053.3c0-4.4-1.2-8.4-4-11.9c-5-6-12.8-5.9-17.6,0.2c-3.5,4.5-4.5,9.6-3.7,15.2
		c0.5,3.2,1.7,6.2,3.8,8.7c4.9,5.8,12.7,5.7,17.5-0.2C1483,3061.7,1484.1,3057.7,1484.2,3053.3z"/>
</g>
<g>
	<path class="st0" d="M1599.2,2742.9c-4.8,0-9,1.1-13.1,2.4c-2.5,0.8-5,1.5-7.5,2.4c-2.4,0.8-4.8,0.8-7.3-0.1
		c-3.6-1.3-7.3-2.4-11-3.6c-2.9-0.9-5.8-1.5-8.8-1.5c-8.1-0.1-13,4.6-13.3,12.7c-0.2,5.8,1.6,10.9,4.8,15.7c2.5,3.7,5.4,7,8.4,10.2
		c3.6,3.9,7.2,7.8,10.9,11.6c2.4,2.4,5,4.5,8.3,5.7c3.4,1.3,6.7,1,9.9-0.6c3.1-1.6,5.9-3.8,8.2-6.4c5.4-6,10.6-12,15.9-18
		c3-3.5,5.4-7.3,6.6-11.9c1-3.9,0.8-7.8-0.7-11.6c-1.6-4-4.7-6.1-8.9-6.7C1600.6,2743,1599.7,2743,1599.2,2742.9z"/>
	<path class="st0" d="M1547.3,2794.3c0-4-0.9-8.1-3.6-11.6c-4.8-6.4-12.8-6.7-17.9-0.5c-5.4,6.4-5.4,17.6,0,23.9
		c5.3,6.2,13.5,5.8,18.2-1.1C1546.1,2801.8,1547.1,2798.3,1547.3,2794.3z"/>
	<path class="st0" d="M1601.1,2796.9c0,4.6,1.2,8.8,4.3,12.4c4.7,5.4,11.7,5.5,16.6,0.3c6.1-6.5,6.2-18.6,0.2-25.1
		c-4.9-5.4-12.2-5.2-16.9,0.4C1602.4,2788.3,1601.2,2792.4,1601.1,2796.9z"/>
	<path class="st0" d="M1600.3,2821.3c-0.1-4.7-1.4-9.1-5-12.7c-4.6-4.6-11.1-4.6-15.6,0c-3,3-4.5,6.8-4.9,11
		c-0.4,4.7,0.5,9.2,3.3,13.1c5.1,7,13.8,7,18.8-0.1C1599.2,2829.2,1600.2,2825.5,1600.3,2821.3z"/>
	<path class="st0" d="M1568.8,2821.2c0-4.4-1.2-8.4-4-11.9c-5-6-12.8-5.9-17.6,0.2c-3.5,4.5-4.5,9.6-3.7,15.2
		c0.5,3.2,1.7,6.2,3.8,8.7c4.9,5.8,12.7,5.7,17.5-0.2C1567.6,2829.6,1568.8,2825.6,1568.8,2821.2z"/>
</g>
<g>
	<path class="st0" d="M1409.1,3422.8c-4.3-2-8.6-2.9-12.9-3.6c-2.6-0.4-5.2-0.8-7.8-1.1c-2.6-0.3-4.7-1.4-6.5-3.2
		c-2.7-2.7-5.5-5.4-8.3-8c-2.2-2-4.5-3.9-7.2-5.2c-7.3-3.6-13.7-1.5-17.5,5.6c-2.7,5.1-3.3,10.5-2.5,16.2c0.7,4.4,1.8,8.6,3.1,12.9
		c1.6,5.1,3.1,10.2,4.8,15.2c1.1,3.2,2.6,6.2,5,8.7c2.5,2.6,5.6,3.8,9.2,3.7c3.5-0.1,6.9-0.9,10.2-2.2c7.4-3,14.8-6.2,22.1-9.4
		c4.2-1.8,8-4.3,11.1-7.8c2.6-3.1,4.1-6.7,4.4-10.7c0.3-4.3-1.6-7.5-5.1-9.9C1410.3,3423.5,1409.5,3423,1409.1,3422.8z"/>
	<path class="st0" d="M1340,3446.4c1.8-3.6,2.7-7.7,1.8-12.1c-1.5-7.9-8.6-11.5-15.9-8.3c-7.6,3.4-12.5,13.5-10.4,21.6
		c2,7.9,9.7,11.1,16.9,7C1335.7,3452.7,1338.1,3450,1340,3446.4z"/>
	<path class="st0" d="M1387.3,3472.1c-2,4.2-2.7,8.5-1.5,13c1.9,6.9,8.2,10.1,14.8,7.5c8.3-3.2,13.7-14,11.1-22.5
		c-2.1-7-8.8-10-15.4-7C1392.2,3465,1389.3,3468.1,1387.3,3472.1z"/>
	<path class="st0" d="M1376,3493.7c1.9-4.3,2.7-8.9,1.1-13.6c-2.1-6.1-8-8.9-14.1-6.8c-4.1,1.4-7,4.2-9.2,7.8
		c-2.5,4.1-3.6,8.5-2.7,13.2c1.5,8.5,9.4,12.3,17,8.1C1371.6,3500.5,1374.1,3497.5,1376,3493.7z"/>
	<path class="st0" d="M1347.7,3480c1.9-3.9,2.6-8.1,1.6-12.5c-1.9-7.6-8.9-10.9-15.9-7.5c-5.1,2.5-8.2,6.7-9.9,12.1
		c-1,3.1-1.1,6.3-0.3,9.5c1.9,7.4,8.9,10.7,15.8,7.4C1342.9,3487.1,1345.7,3484,1347.7,3480z"/>
</g>
<g>
	<path class="st0" d="M1361.7,279c-4,2.6-7,5.7-9.8,9c-1.7,2-3.4,4-5.1,6c-1.6,2-3.7,3.2-6.2,3.8c-3.7,0.9-7.5,1.8-11.2,2.8
		c-2.9,0.8-5.7,1.8-8.2,3.4c-6.9,4.3-8.5,10.8-4.5,17.8c2.9,5,7.2,8.4,12.5,10.7c4.1,1.8,8.3,3,12.6,4.1c5.1,1.3,10.3,2.7,15.4,4
		c3.3,0.8,6.7,1.1,10,0.4c3.6-0.7,6.2-2.7,8.1-5.9c1.8-3,2.9-6.4,3.5-9.8c1.3-7.9,2.6-15.8,3.8-23.7c0.7-4.5,0.6-9.1-0.8-13.5
		c-1.2-3.9-3.5-7-6.8-9.4c-3.5-2.5-7.2-2.6-11.1-0.9C1363,278.3,1362.2,278.8,1361.7,279z"/>
	<path class="st0" d="M1345.3,350.1c-2.1-3.4-5.1-6.3-9.3-7.9c-7.5-2.9-14.3,1.2-15.4,9.1c-1.2,8.3,4.8,17.7,12.8,20.2
		c7.8,2.4,14.5-2.4,14.8-10.7C1348.4,357.1,1347.3,353.7,1345.3,350.1z"/>
	<path class="st0" d="M1392.1,323.6c2.5,3.9,5.8,6.8,10.2,8.1c6.8,2,12.9-1.6,14.2-8.6c1.7-8.7-4.7-19-13.3-21.3
		c-7-1.9-13.1,2.1-14.1,9.4C1388.7,315.7,1389.8,319.7,1392.1,323.6z"/>
	<path class="st0" d="M1404.5,344.6c-2.6-3.9-6.1-7-11-8.1c-6.3-1.5-11.8,2-13.2,8.3c-0.9,4.2-0.2,8.2,1.7,11.9
		c2.2,4.2,5.3,7.5,9.8,9.3c8,3.2,15.4-1.5,15.8-10.1C1407.9,351.9,1406.7,348.2,1404.5,344.6z"/>
	<path class="st0" d="M1377.9,361.4c-2.4-3.7-5.5-6.5-9.8-7.9c-7.4-2.4-14,1.8-14.8,9.6c-0.6,5.7,1.4,10.6,5,14.8
		c2.1,2.5,4.7,4.3,7.9,5.3c7.3,2.3,13.8-1.9,14.6-9.5C1381.4,369.1,1380.2,365.1,1377.9,361.4z"/>
</g>
<g>
	<path class="st0" d="M1479,850.5c-4.5,1.7-8,4.2-11.5,6.8c-2.1,1.6-4.1,3.2-6.2,4.8c-2,1.6-4.2,2.4-6.8,2.5
		c-3.8,0.1-7.7,0.3-11.5,0.5c-3,0.2-5.9,0.6-8.7,1.7c-7.6,2.8-10.5,8.8-8,16.5c1.8,5.5,5.4,9.7,10,13c3.6,2.5,7.5,4.6,11.5,6.6
		c4.8,2.4,9.5,4.8,14.3,7c3.1,1.4,6.3,2.4,9.7,2.4c3.6,0,6.7-1.4,9.1-4.1c2.4-2.6,4.1-5.6,5.4-8.9c2.9-7.5,5.7-15,8.5-22.5
		c1.6-4.3,2.4-8.8,2-13.4c-0.4-4-2-7.6-4.8-10.6c-2.9-3.2-6.6-4-10.7-3.1C1480.4,850.1,1479.5,850.4,1479,850.5z"/>
	<path class="st0" d="M1448.5,916.8c-1.4-3.8-3.7-7.3-7.5-9.6c-6.8-4.3-14.3-1.7-17,5.8c-2.8,7.9,1.2,18.3,8.5,22.4
		c7.1,4,14.7,0.6,16.7-7.4C1450.1,924.3,1449.8,920.7,1448.5,916.8z"/>
	<path class="st0" d="M1499.8,900.3c1.7,4.3,4.3,7.8,8.4,10c6.2,3.4,12.9,1,15.7-5.5c3.4-8.2-0.7-19.5-8.7-23.5
		c-6.5-3.3-13.3-0.6-15.7,6.3C1498,891.9,1498.3,896.1,1499.8,900.3z"/>
	<path class="st0" d="M1507.6,923.4c-1.7-4.3-4.5-8.1-9.1-10.2c-5.9-2.7-12-0.4-14.6,5.5c-1.8,3.9-1.8,8-0.7,12
		c1.3,4.6,3.7,8.4,7.7,11.1c7.2,4.8,15.4,1.7,17.6-6.7C1509.5,931.3,1509.1,927.4,1507.6,923.4z"/>
	<path class="st0" d="M1478.2,934.4c-1.6-4.1-4.1-7.5-8-9.7c-6.7-3.9-14-1.1-16.4,6.4c-1.7,5.4-0.8,10.6,1.9,15.5
		c1.6,2.9,3.8,5.2,6.7,6.8c6.7,3.7,13.9,0.9,16.3-6.4C1480,942.8,1479.7,938.6,1478.2,934.4z"/>
</g>
<g>
	<path class="st0" d="M1648.9,892.4c-4.6,1.4-8.3,3.6-11.9,6c-2.2,1.4-4.4,2.9-6.5,4.4c-2.1,1.5-4.4,2.1-7,2
		c-3.8-0.2-7.7-0.3-11.5-0.3c-3,0-6,0.2-8.8,1c-7.8,2.2-11.1,8.1-9.1,15.9c1.4,5.6,4.6,10,9.1,13.7c3.4,2.8,7.2,5.2,11,7.4
		c4.6,2.7,9.1,5.4,13.8,8c3,1.7,6.1,2.9,9.5,3.1c3.6,0.3,6.7-0.9,9.4-3.4c2.5-2.4,4.5-5.3,6-8.5c3.4-7.2,6.8-14.5,10.1-21.8
		c1.9-4.2,3.1-8.6,2.9-13.2c-0.1-4.1-1.5-7.7-4-10.9c-2.7-3.4-6.3-4.5-10.4-3.9C1650.3,892.1,1649.4,892.3,1648.9,892.4z"/>
	<path class="st0" d="M1613.7,956.4c-1.1-3.9-3.2-7.5-6.8-10.1c-6.4-4.8-14.1-2.7-17.4,4.6c-3.4,7.6-0.2,18.4,6.8,23
		c6.8,4.5,14.6,1.7,17.2-6.2C1614.8,964,1614.7,960.3,1613.7,956.4z"/>
	<path class="st0" d="M1666,943.6c1.3,4.4,3.7,8.1,7.6,10.6c6,3.8,12.8,1.9,16-4.4c4-7.9,0.7-19.5-7-24.1
		c-6.2-3.7-13.2-1.5-16.1,5.2C1664.8,935,1664.8,939.3,1666,943.6z"/>
	<path class="st0" d="M1672.2,967.2c-1.4-4.5-4-8.4-8.4-10.8c-5.7-3.1-11.9-1.3-15,4.4c-2,3.8-2.4,7.8-1.6,12
		c0.9,4.7,3.1,8.7,6.9,11.6c6.8,5.3,15.2,2.8,18-5.5C1673.4,975.1,1673.3,971.3,1672.2,967.2z"/>
	<path class="st0" d="M1642,976.1c-1.3-4.2-3.5-7.8-7.2-10.3c-6.5-4.3-13.9-2.1-16.8,5.2c-2.1,5.3-1.6,10.5,0.8,15.6
		c1.4,3,3.4,5.4,6.2,7.2c6.4,4.2,13.8,1.9,16.7-5.2C1643.3,984.5,1643.2,980.3,1642,976.1z"/>
</g>
<g>
	<path class="st0" d="M1544.6,695.6c-4.6,1.4-8.3,3.6-11.9,6c-2.2,1.4-4.3,2.9-6.5,4.4c-2.1,1.5-4.4,2.1-7,2
		c-3.8-0.2-7.7-0.2-11.5-0.3c-3,0-6,0.2-8.8,1.1c-7.8,2.2-11.1,8.1-9.1,16c1.4,5.6,4.7,10,9.1,13.6c3.4,2.8,7.2,5.1,11,7.4
		c4.6,2.7,9.1,5.4,13.8,8c3,1.7,6.1,2.9,9.6,3.1c3.6,0.2,6.7-1,9.3-3.5c2.5-2.5,4.5-5.3,6-8.5c3.4-7.2,6.8-14.5,10-21.8
		c1.9-4.2,3-8.6,2.9-13.2c-0.1-4.1-1.5-7.7-4-10.9c-2.7-3.4-6.3-4.5-10.5-3.8C1546,695.2,1545.1,695.5,1544.6,695.6z"/>
	<path class="st0" d="M1509.6,759.6c-1.1-3.9-3.2-7.5-6.8-10.1c-6.5-4.8-14.1-2.7-17.3,4.6c-3.3,7.7-0.1,18.4,6.9,22.9
		c6.8,4.5,14.6,1.6,17.2-6.3C1510.7,767.2,1510.6,763.6,1509.6,759.6z"/>
	<path class="st0" d="M1561.9,746.7c1.4,4.4,3.7,8.1,7.7,10.6c6,3.8,12.8,1.9,16-4.5c4-7.9,0.6-19.6-7-24.1
		c-6.3-3.7-13.2-1.5-16.1,5.2C1560.7,738.1,1560.7,742.4,1561.9,746.7z"/>
	<path class="st0" d="M1568.1,770.3c-1.4-4.4-4-8.4-8.4-10.8c-5.7-3.1-11.9-1.2-15,4.5c-2,3.8-2.4,7.8-1.5,12
		c0.9,4.7,3.1,8.7,6.9,11.6c6.9,5.3,15.2,2.7,18-5.5C1569.4,778.2,1569.3,774.4,1568.1,770.3z"/>
	<path class="st0" d="M1538,779.2c-1.3-4.2-3.5-7.8-7.3-10.3c-6.5-4.3-13.9-2-16.8,5.2c-2.1,5.3-1.5,10.5,0.9,15.6
		c1.4,3,3.4,5.4,6.2,7.2c6.4,4.2,13.8,1.8,16.7-5.2C1539.2,787.6,1539.2,783.5,1538,779.2z"/>
</g>
</svg>
