<?xml version="1.0" encoding="utf-8"?>
<!-- Generator: Adobe Illustrator 24.3.0, SVG Export Plug-In . SVG Version: 6.00 Build 0)  -->
<svg version="1.1" id="Layer_1" xmlns="http://www.w3.org/2000/svg" xmlns:xlink="http://www.w3.org/1999/xlink" x="0px" y="0px"
	 viewBox="0 0 200 200" style="enable-background:new 0 0 200 200;" xml:space="preserve">
<style type="text/css">
	.st0{fill:#530416;}
</style>
<g id="Layer_2_1_">
	<path class="st0" d="M103.5,115.9L103.5,115.9z"/>
	<path class="st0" d="M174.5,78.8L174.5,78.8z"/>
	<path class="st0" d="M13.6,114.7c-0.1,0.1-0.1,0.1-0.1,0.2s-0.1,0.2-0.1,0.3c0,0.1-0.1,0.2-0.1,0.3c0,0.1,0,0.2-0.1,0.4
		c0,0.1,0,0.1,0,0.2v0.1c0,0.2,0,0.3,0,0.5c0,0.1,0,0.2,0.1,0.4c0.1,0.2,0.2,0.5,0.3,0.7c0,0.1,0.1,0.2,0.2,0.3l15.3-0.2v1.2h0.6
		v-33L13.6,114.7z"/>
	<path class="st0" d="M171.1,154.7c-0.1,0.8-0.4,1.6-1.1,2.2c-1.1,0.9-2.7,1-3.9,1.7c-0.4,0.2-0.8,0.4-1.2,0.6
		c-1.3,0.7-2.5,1.3-3.8,2c-1.8,0.9-3.6,1.9-5.4,2.8c-2.2,1.1-4.3,2.3-6.5,3.4c-2.4,1.2-4.8,2.5-7.2,3.8c-2.5,1.3-5,2.6-7.5,3.9
		c-2.5,1.3-4.9,2.6-7.4,3.9c-2.3,1.2-4.6,2.4-6.8,3.6c-1.9,1-3.9,2-5.8,3.1c-1.5,0.8-3,1.6-4.5,2.3c-0.9,0.5-1.8,0.9-2.6,1.4
		c-0.2,0.1-0.4,0.2-0.5,0.3v-61.2l12.8,21.9l0.1,0.1c0.1,0.1,0.1,0.2,0.2,0.3s0.1,0.2,0.2,0.3s0.1,0.1,0.2,0.2
		c0.1,0.1,0.2,0.2,0.3,0.2c0.1,0.1,0.2,0.2,0.4,0.2c0.1,0.1,0.2,0.1,0.3,0.2c0.3,0.1,0.6,0.2,1,0.3c0.1,0,0.3,0,0.5,0
		c0.1,0,0.3,0,0.4,0s0.1,0,0.2,0l0,0c0.1,0,0.2,0,0.2,0c0.3-0.1,0.6-0.2,0.8-0.4l15.2-7.9l31.5-16.4v24.3c0,0.1,0,0.1,0,0.2
		C171.1,152.7,171.3,153.8,171.1,154.7z"/>
	<polygon class="st0" points="189,110.3 177.9,116.1 171.1,119.6 139.6,136.1 132.3,139.9 124,144.2 116.8,131.8 116.8,131.8 
		110.3,120.8 108.2,117.2 171.1,84.4 173.2,83.3 177.9,91.3 	"/>
	<path class="st0" d="M100.1,117.9v71.6c-1.4-0.7-2.8-1.5-4.2-2.2c-3.5-1.8-7.1-3.7-10.6-5.5c-2.4-1.2-4.7-2.5-7.1-3.7
		c-2.3-1.2-4.6-2.4-6.9-3.6l-5.3-2.8l0,0c-3-1.5-5.9-3.1-8.9-4.6c-3.8-2-7.6-4-11.5-6c-2.6-1.4-5.2-2.8-7.8-4.1
		c-0.5-0.2-1-0.5-1.3-0.9c-0.5-0.6-0.5-1.5-0.5-2.3c0-4.2,0-8.3,0-12.5v-55c0-0.2,0.1-1.8,0-1.9L100.1,117.9z"/>
</g>
<g id="Layer_3">
	<path class="st0" d="M29.7,86.1V119h-0.6l-13,0.2l0,0c-0.1,0-0.2,0-0.3,0s-0.2,0-0.3,0l0,0c-0.1,0-0.1,0-0.2-0.1
		c-0.2-0.1-0.4-0.1-0.6-0.2c-0.1-0.1-0.2-0.1-0.3-0.2c-0.2-0.2-0.4-0.3-0.5-0.5l0,0c-0.1-0.1-0.1-0.2-0.2-0.3
		c-0.1-0.2-0.2-0.4-0.3-0.7c0-0.1-0.1-0.2-0.1-0.4c0-0.1,0-0.3,0-0.5v-0.1c0-0.1,0-0.1,0-0.2s0-0.2,0.1-0.4c0-0.1,0.1-0.2,0.1-0.3
		c0-0.1,0.1-0.2,0.1-0.3c0-0.1,0.1-0.2,0.1-0.2L29.7,86.1z"/>
	<path class="st0" d="M167.2,78.8l-34.6-18.1c-2.7-4.8-5.7-9.2-9.3-13.2c-8.1-9.2-18.4-15.6-30.5-19.2c-5.7-1.7-11.8-2.7-18.1-3.1
		c-0.8,0-1.5-0.1-2.3-0.1v-1.8c0-3.4,0-6.7,0-10.1c0-3.2-1.8-5.8-4.7-6.8c-2.2-0.8-4.6-0.3-6.4,1.3c-5.6,5-11.3,9.9-16.9,14.9
		l-3.4,3c-5.4,4.8-10.8,9.5-16.2,14.3c-1.8,1.5-2.7,3.5-2.7,5.7c0,2.1,1,4.1,2.7,5.6c9.2,8.1,18.4,16.2,27.6,24.3L42.3,81l60.5,31.3
		l2.8-1.3l1.4-0.9v0.1L167.2,78.8z M30.4,45.8c5.3-4.7,10.6-9.3,15.9-14l3.4-3c4.9-4.3,9.9-8.7,14.8-13c0,2.6,0,5.2,0,7.8V33
		l5.8,0.2c1.4,0.1,2.7,0.1,4,0.2c5.7,0.3,11.2,1.3,16.3,2.8c10.6,3.1,19.6,8.8,26.7,16.8c0,0,0,0,0.1,0.1
		c5.8,6.5,10.2,14.3,13.6,23.7c0.6,1.8,1.2,3.6,1.7,5.4c-1.5-1.7-3.1-3.3-4.8-4.9c-5.9-5.4-12.8-9.5-21-12.6
		c-1.6-0.6-3.3-1.2-5.1-1.7c-5.5-1.8-11.4-3-17.8-3.7c-4.7-0.5-9.6-0.8-14.8-0.9h-0.1c-1.7,0-2.8,0.7-3.4,1.3
		c-0.9,0.9-1.3,2-1.3,3.5c0,2.1,0,4.2,0,6.3c0,2.1,0,4.2,0,6.3v0.1c-1.5-1.3-3-2.7-4.5-4C50.1,63.1,40.3,54.4,30.4,45.8z"/>
</g>
</svg>
