<?xml version="1.0" encoding="utf-8"?>
<!-- Generator: Adobe Illustrator 24.3.0, SVG Export Plug-In . SVG Version: 6.00 Build 0)  -->
<svg version="1.1" id="Layer_1" xmlns="http://www.w3.org/2000/svg" xmlns:xlink="http://www.w3.org/1999/xlink" x="0px" y="0px"
	 viewBox="0 0 200 200" style="enable-background:new 0 0 200 200;" xml:space="preserve">
<style type="text/css">
	.st0{fill:#530416;}
</style>
<g id="Layer_2_1_">
	<path class="st0" d="M155.1,30c-1.9-8.5-6.6-16.9-14.1-21.2c-10.9-6.3-26.1-3.9-34.9,4.9c-8.6,8.7-11.8,21.8-10.7,33.7
		c2,21.4,14.4,41.8,31.2,40.3c6.8-0.6,12.2-3,16.5-6.6c2-1.6,3.7-3.5,5.2-5.5c6.6-9.1,9-21.9,8.4-33.9
		C156.5,37.6,155.9,33.7,155.1,30z M124.2,72.9c-8.9,1.5-12.7-5.8-12.7-5.8c8.1,6.3,18.2,2.5,23.6-5.1
		C134.9,62.5,132.2,71.6,124.2,72.9z"/>
	<path class="st0" d="M175.4,157.2c-4.9,8.4-11.3,15.9-19.1,21.6c-13,9.5-28.9,14.8-44.9,15.9c-3.4,0.2-6.8,0.3-10.3,0.1
		c5.1,0.2,12.5-7.3,16-10.5c11.9-10.9,21.3-25,27-40.3c5.7-15.1,9.8-34,5.1-49.9c-0.4-1.4-0.9-2.8-1.5-4.2c-0.4-1-6.5-11.2-7.5-10.3
		c11.3-9.8,30.1,0.4,37.6,10.4c9.6,12.7,10,31.3,6.2,46.1C182.1,143.5,179.3,150.6,175.4,157.2z"/>
	<path class="st0" d="M76.5,57c0.1,1.9,0.7,16.7,2.2,17.3c-10.3-4.3-20.4-8.1-31.4-10c-9.1-1.5-21.1-3.4-26.5-11.9
		c-1.8-2.9-2.5-6.4-2.6-9.8c0-2.8,0.4-5.8,1.7-8.3c2.2-4.4,7.1-6.5,11.7-7.2c4.9-0.7,10.9-0.2,14.9,2.9c0,0,3.2,2.4,4,3.9
		c0,0,0.1,0.1,0.1,0.1c-0.1-0.4-3-7.1-4.2-9.8c0-0.1,0-0.2,0.1-0.3c0.4-2,1.2-3.8,2.2-5.5c2.1-3.4,5.3-6.2,9.2-7.1
		c5.8-1.4,12.8-0.4,17,4c0.6,0.6,1.1,1.3,1.6,2C83.1,27.8,75.8,45.2,76.5,57z"/>
	<path class="st0" d="M124.1,107.5c-7.8,1.7-16,3.2-23.6,2.8c-5.2-0.3-9.3-4-12.6-7.6c-1.2-1.3-2.8-2.4-4.3-3.2
		c-3.2-1.5-6.9-1.6-10.3-1.1c-0.8,0.1-7.6,1.4-7.7,1.3c0,0-16.5-21.6-25-25.9c0,0-2.3,34.5-2.9,44.2c-0.4,5.7-2.1,11.3-4,16.7
		c-1.7,5-3,10.1-4.3,15.3c-2.9,11.3-6.4,22.5-10.5,33.4c-1,2.7-2.9,6-3.3,9.2c0.2,0,0.4,0,0.5,0H59c8.1-0.8,16.2-3.3,21.9-9.3
		c5.9-6.1,8.9-14.3,10.8-22.5c0.1-0.3,0.2-0.6,0.2-1c0.8-3.4,1.3-6.9,1.9-10.4c10.1-2.5,21.8-6.6,26.6-16.7
		c2.3-4.8,3.3-10.2,3.6-15.5C124.2,114.4,124.8,110.6,124.1,107.5z M54.5,106.1c-2.5,1.9-3.5,2.7-3.8,3L50,92.2
		C51.7,95.3,59.8,102,54.5,106.1z"/>
</g>
<g id="Layer_3">
</g>
<g id="Layer_4">
</g>
</svg>
