<?xml version="1.0" encoding="utf-8"?>
<!-- Generator: Adobe Illustrator 24.3.0, SVG Export Plug-In . SVG Version: 6.00 Build 0)  -->
<svg version="1.1" id="Layer_1" xmlns="http://www.w3.org/2000/svg" xmlns:xlink="http://www.w3.org/1999/xlink" x="0px" y="0px"
	 viewBox="0 0 200 200" style="enable-background:new 0 0 200 200;" xml:space="preserve">
<style type="text/css">
	.st0{fill:#530416;}
</style>
<g id="Layer_2_1_">
	<path class="st0" d="M128.3,132.7c4.4,16.1-12.7,30.2-24.3,37.8c-1.3,0.9-2.7,1.7-4,2.5c-1.3-0.8-2.7-1.6-4-2.5
		c-11.6-7.6-28.7-21.7-24.3-37.8c0.8-2.8,2.1-5.4,4.3-7.3c4-3.5,10-3.6,14.8-1.9c4.1,1.5,8.4,4.9,9.3,9.9c0.9-4.6,5.2-8.4,9.3-9.9
		c4.8-1.8,10.8-1.7,14.8,1.9C126.2,127.3,127.6,130,128.3,132.7z"/>
	<polygon class="st0" points="196.2,77.5 195.8,77.9 163.5,77.9 163.5,183.9 137.2,183.9 137.2,103 62.8,103 62.8,183.9 36.5,183.9 
		36.5,77.9 4.2,77.9 3.8,77.5 100,9.3 141.5,38.7 141.5,25.7 163.5,25.7 163.5,54.4 	"/>
</g>
<g id="Layer_4">
	<path class="st0" d="M104,170.5c-1.3,0.9-2.7,1.7-4,2.5c-1.3-0.8-2.7-1.6-4-2.5c-11.6-7.6-28.7-21.7-24.3-37.8
		c0.8-2.8,2.1-5.4,4.3-7.3c4-3.5,10-3.6,14.8-1.9c4.1,1.5,8.4,4.9,9.3,9.9c0.9-4.6,5.2-8.4,9.3-9.9c4.8-1.8,10.8-1.7,14.8,1.9
		c2.2,1.9,3.5,4.6,4.3,7.3C132.7,148.8,115.6,162.9,104,170.5z"/>
</g>
</svg>
