<?xml version="1.0" encoding="utf-8"?>
<!-- Generator: Adobe Illustrator 24.3.0, SVG Export Plug-In . SVG Version: 6.00 Build 0)  -->
<svg version="1.1" id="Layer_1" xmlns="http://www.w3.org/2000/svg" xmlns:xlink="http://www.w3.org/1999/xlink" x="0px" y="0px"
	 viewBox="0 0 200 200" style="enable-background:new 0 0 200 200;" xml:space="preserve">
<style type="text/css">
	.st0{fill:#530416;}
</style>
<g id="Layer_3">
	<g>
		<path class="st0" d="M82.4,159.1c-0.4,3.5-2.5,5.8-5.7,7.1s-6.6,1.5-10.1,1.5c-2.9,0-5.8-0.2-8.6-0.3c-2.1-0.1-3.9,0.4-5.7,1.5
			c-2.9,1.9-5.8,3.8-8.7,5.5c-2.4,1.4-4.9,2.5-7.6,2.9c-4.9,0.6-8.5-1.5-10.4-6.1c-0.3-0.7-0.5-1.5-0.8-2.2
			c-1.2-4.5-0.7-8.9,1.1-13.2c1.4-3.4,3-6.7,4.8-10c2-3.8,4.1-7.6,6.2-11.3c1-1.7,2.2-3.1,3.7-4.4c2.7-2.3,5.8-3,9.3-2.1
			c3,0.8,5.8,2.2,8.4,4c1.7,1.1,3.3,2.2,5,3.4c4.7,8.1,11.3,14.9,19.1,19.9C82.6,156.5,82.6,157.7,82.4,159.1z"/>
		<path class="st0" d="M24.2,137.7c0.8,2.9,0.8,6.2-0.5,9.5c-2.4,6-8.6,7.8-13.9,4.1C4.3,147.4,2,138.6,5,132.5
			c2.9-5.9,9.4-7.2,14.4-2.8C21.6,131.6,23.3,134.3,24.2,137.7z"/>
		<path class="st0" d="M56.9,118.7c-2.8,2.7-6.8,3.1-10.5,1c-2.9-1.7-4.9-4.4-6-7.5c-1.3-3.6-1.5-7.3-0.1-10.9
			c2.5-6.6,9.4-8.3,14.7-3.8c0.4,0.4,0.8,0.7,1.2,1.1c-0.4,2.6-0.6,5.3-0.6,8.1C55.6,110.8,56,114.8,56.9,118.7z"/>
		<path class="st0" d="M35.4,112c0.9,3.4,0.8,6.8-0.7,10.1c-2.6,5.7-8.7,7.2-13.7,3.5c-3.7-2.8-5.5-6.6-6-11.1
			c-0.3-2.6,0.1-5.1,1.2-7.5c2.6-5.5,8.7-7,13.6-3.4C32.7,105.7,34.5,108.5,35.4,112z"/>
	</g>
	<g>
		<path class="st0" d="M91.1,53.6c-14.3,5.9-25.7,17.5-31.5,31.9c-2.2,0.5-4.4,0.7-6.7,0.4c-4.9-0.7-7.8-3.6-8.5-8.6
			c-0.1-0.8-0.1-1.5-0.2-2.3c0-4.7,1.7-8.8,4.5-12.5c2.2-2.9,4.7-5.7,7.2-8.4c2.9-3.2,5.9-6.3,8.9-9.3c1.4-1.4,3-2.5,4.7-3.3
			c3.3-1.6,6.4-1.4,9.5,0.4c2.7,1.6,5.1,3.7,7.1,6C87.8,49.8,89.5,51.7,91.1,53.6z"/>
		<path class="st0" d="M51.8,44.6c0,3-0.8,6.2-2.9,9C45,58.8,38.6,59,34.4,54.1c-4.3-5.2-4.3-14.2,0.1-19.3c4.3-5,10.9-4.5,14.7,1
			C50.8,38.1,51.7,41.1,51.8,44.6z"/>
		<path class="st0" d="M114.3,49.3c-0.4,0-0.8,0-1.2,0c-5.3,0-10.4,0.7-15.2,2.1c-1.9-2.6-2.6-5.6-2.7-8.9c0.1-3.7,1-7.1,3.5-9.9
			c3.8-4.2,9.4-4.3,13.3-0.2C116,36.5,116.8,43.9,114.3,49.3z"/>
		<path class="st0" d="M94.6,22.8c-0.1,3.8-1.2,7.3-4,10.2c-3.7,3.7-9,3.7-12.6-0.1c-2.4-2.4-3.6-5.5-3.9-8.8
			c-0.3-3.8,0.4-7.4,2.7-10.5C80.9,7.9,88,8,92,13.8C93.8,16.4,94.5,19.5,94.6,22.8z"/>
		<path class="st0" d="M69.3,22.8c0,3.5-1,6.8-3.3,9.6c-4,4.8-10.3,4.7-14.2-0.2c-2.8-3.6-3.6-7.8-2.9-12.3c0.4-2.6,1.4-5,3.1-7
			c4-4.7,10.2-4.6,14.1,0.3C68.3,16,69.2,19.2,69.3,22.8z"/>
	</g>
</g>
<g id="Layer_2_1_">
	<g>
		<path class="st0" d="M187,166.5l-28.1-28.1c-1.6-1.6-3.4-2.8-5.4-3.5c5.6-8,8.9-17.7,8.9-28.2c0-27.3-22.2-49.4-49.4-49.4
			c-5.7,0-11.3,1-16.4,2.8C85.3,64,75.9,72,70,82.3c-4.1,7.2-6.4,15.5-6.4,24.3c0,4,0.5,7.9,1.4,11.6c1.3,5.2,3.3,10.1,6.1,14.5
			c8.7,14,24.3,23.3,41.9,23.3c6.8,0,13.3-1.4,19.3-3.9c0.5,3.1,2,6.1,4.4,8.5l28.1,28.1c3.1,3.1,7.1,4.6,11.1,4.6s8.1-1.5,11.1-4.6
			C193.2,182.6,193.2,172.6,187,166.5z M113,140.3c-11.3,0-21.2-5.5-27.4-14.1c-3.3-4.6-5.5-10-6.1-15.8c-0.1-1.2-0.2-2.5-0.2-3.8
			c0-8.2,2.9-15.7,7.8-21.5c4.2-5.1,9.9-8.9,16.5-10.8c3-0.9,6.2-1.4,9.4-1.4c18.6,0,33.7,15.1,33.7,33.7
			C146.7,125.2,131.6,140.3,113,140.3z"/>
		<path class="st0" d="M187,166.5l-28.1-28.1c-1.6-1.6-3.4-2.8-5.4-3.5c5.6-8,8.9-17.7,8.9-28.2c0-27.3-22.2-49.4-49.4-49.4
			c-5.7,0-11.3,1-16.4,2.8C85.3,64,75.9,72,70,82.3c-4.1,7.2-6.4,15.5-6.4,24.3c0,4,0.5,7.9,1.4,11.6c1.3,5.2,3.3,10.1,6.1,14.5
			c8.7,14,24.3,23.3,41.9,23.3c6.8,0,13.3-1.4,19.3-3.9c0.5,3.1,2,6.1,4.4,8.5l28.1,28.1c3.1,3.1,7.1,4.6,11.1,4.6s8.1-1.5,11.1-4.6
			C193.2,182.6,193.2,172.6,187,166.5z M113,140.3c-11.3,0-21.2-5.5-27.4-14.1c-3.3-4.6-5.5-10-6.1-15.8c-0.1-1.2-0.2-2.5-0.2-3.8
			c0-8.2,2.9-15.7,7.8-21.5c4.2-5.1,9.9-8.9,16.5-10.8c3-0.9,6.2-1.4,9.4-1.4c18.6,0,33.7,15.1,33.7,33.7
			C146.7,125.2,131.6,140.3,113,140.3z"/>
	</g>
	<g>
		<path class="st0" d="M129.9,97.6c-0.6,0.4-1.3,0.5-2,0.5c-1.4,0-2.7-0.7-3.4-1.9c-3-5.1-8.3-8-13.7-8c-2.2,0-4.5,0.5-6.6,1.5
			c-0.6,0.3-1.2,0.4-1.7,0.4c-1.4,0-2.8-0.8-3.5-2.2c-1-1.9-0.2-4.3,1.8-5.3c3.1-1.5,6.6-2.3,10-2.3c8.1,0,16.1,4.3,20.5,11.9
			C132.4,94.1,131.8,96.5,129.9,97.6z"/>
	</g>
</g>
</svg>
