<?xml version="1.0" encoding="utf-8"?>
<!-- Generator: Adobe Illustrator 24.3.0, SVG Export Plug-In . SVG Version: 6.00 Build 0)  -->
<svg version="1.1" id="Layer_3" xmlns="http://www.w3.org/2000/svg" xmlns:xlink="http://www.w3.org/1999/xlink" x="0px" y="0px"
	 viewBox="0 0 200 200" style="enable-background:new 0 0 200 200;" xml:space="preserve">
<style type="text/css">
	.st0{fill:#530416;}
</style>
<g>
	<path class="st0" d="M66,165.3c0-24.4,0-48.7,0-73.2c22.6,0,45.1,0,67.7,0c0,24.4,0,48.7,0,73.2C111.2,165.3,88.7,165.3,66,165.3z"
		/>
	<path class="st0" d="M43.9,172.4c37.4,0,74.6,0,112.1,0c-0.4,2.5-0.7,4.9-1.2,7.3c-0.8,3.9-2.3,7.5-4.7,10.7
		c-2.2,2.9-4.8,5.2-8.6,5.8c-0.7,0.1-1.4,0.1-2.1,0.1c-20.2,0-40.4,0-60.6,0c-6.2,0-12.4,0-18.6,0.1c-3.9,0.1-7-1.6-9.5-4.5
		c-4.2-4.8-5.9-10.6-6.7-16.7C44,174.2,44,173.3,43.9,172.4z"/>
	<path class="st0" d="M111.9,80.8c0.7-1.6,1.5-2.9,1.9-4.4c1.6-5.3,0.4-10.1-3-14.5c-1.9-2.4-3.8-4.9-5.5-7.4
		c-2.5-3.8-3.9-8-4.7-12.5c0-0.1-0.1-0.2-0.2-0.4c-0.2,0.9-0.3,1.7-0.5,2.6c-1.1,4.8-3.1,9.1-6,13c-1.6,2.2-3.3,4.3-4.8,6.6
		c-3.5,5.4-3.3,11.7,0.4,17.1c0.1,0.2,0.2,0.4,0.2,0.7c-1.5-1.1-3-2.2-4.5-3.3c-3.9-3-7.6-6.1-10.7-9.9c-2.1-2.5-3.8-5.2-4.8-8.4
		c-1.2-3.9-0.8-7.7,0.1-11.6c1.2-4.6,3.3-8.7,6-12.5c5.3-7.4,10.8-14.7,16.2-22c2.5-3.3,5.1-6.6,7.7-10.1c0.8,1,1.5,1.9,2.2,2.8
		c5.1,6.7,10.3,13.4,15.4,20.1c3.7,5,7.4,10,10.1,15.6c2.4,4.9,3.7,10.1,2.9,15.6c-0.6,3.9-2.4,7.2-4.7,10.3c-3.1,4-7,7.3-11,10.5
		C113.9,79.3,113,80,111.9,80.8z"/>
	<path class="st0" d="M96.3,79.5c0-1.8,0-3.5,0-5.3c0-2.2,1.5-3.8,3.6-3.8c2.1,0,3.7,1.6,3.7,3.8c0,3.6,0,7.3,0,10.9
		c0,2.1-1.6,3.7-3.6,3.7c-2,0-3.6-1.6-3.6-3.7C96.2,83.3,96.3,81.4,96.3,79.5C96.3,79.5,96.3,79.5,96.3,79.5z"/>
</g>
</svg>
