<?xml version="1.0" encoding="utf-8"?>
<!-- Generator: Adobe Illustrator 24.3.0, SVG Export Plug-In . SVG Version: 6.00 Build 0)  -->
<svg version="1.1" id="Layer_3" xmlns="http://www.w3.org/2000/svg" xmlns:xlink="http://www.w3.org/1999/xlink" x="0px" y="0px"
	 viewBox="0 0 200 200" style="enable-background:new 0 0 200 200;" xml:space="preserve">
<style type="text/css">
	.st0{fill:#530416;}
</style>
<path class="st0" d="M112.4,79.8c0.7-0.2,1.4-0.4,2-0.6c1.6-0.5,3.2-1,4.8-1.6c0.5-0.2,0.9-0.3,1.2-0.8c1.7-2.4,3.5-4.8,5.2-7.2
	c2.1-2.9,4.4-5.6,7.2-7.9c2-1.6,4.2-3.1,6.5-4.2c1.6-0.8,3.3-1.4,4.9-2c2.6-1,5.4-1.5,8.2-1.8c2.2-0.2,4.5-0.2,6.7,0
	c2.7,0.3,5.4,0.8,8,1.7c4,1.3,7.6,3.3,10.9,5.8c2.5,2,4.8,4.2,6.7,6.8c1.7,2.3,3.2,4.7,4.2,7.4c0.5,1.2,1,2.4,1.4,3.6
	s0.7,2.4,0.9,3.6c0.3,1.5,0.5,3,0.6,4.6c0.1,2,0,4.1-0.1,6.1c-0.1,2.1-0.5,4-1.1,6c-1,3.5-2.4,6.8-4.4,9.8c-1.6,2.5-3.5,4.8-5.7,6.9
	c-2.1,2-4.4,3.7-6.9,5.1c-2,1.1-4.1,2.1-6.3,2.8c-2.2,0.7-4.4,1.3-6.7,1.5c-2.1,0.2-4.2,0.4-6.3,0.3c-3.4-0.1-6.8-0.7-10-1.8
	c-4-1.4-7.7-3.3-11-6c-2.8-2.2-5.3-4.8-7.3-7.8c-1.3-1.9-2.4-3.8-3.3-5.9c-0.6-1.5-1.1-2.9-1.7-4.4c-0.1-0.4-0.2-0.8-0.3-1.2
	c-1.4,0.4-2.8,0.9-4.1,1.3c-1.2,0.4-2.4,0.8-3.6,1.2c-0.4,0.1-0.5,0.3-0.5,0.7c0,2.9,0,5.8,0,8.6c0,1.9,0,3.8,0,5.7
	c0,1.9,0,3.7,0,5.6c0,1.7,0.1,3.5,0.1,5.2c0,1.4-0.1,2.7-0.1,4.1c0,4.2,0.1,8.3,0.1,12.5c0,3.6,0,7.3,0,10.9c0,3.5,0.1,6.9,0,10.4
	c-0.1,3-0.4,6-1.2,8.9c-0.7,2.6-1.6,5.2-3,7.5c-1.5,2.5-3.5,4.7-5.9,6.4c-1.5,1.1-3.2,2-5,2.5c-1.7,0.5-3.4,0.8-5.1,1.1
	c-0.1,0-0.2,0-0.3-0.1c-0.1-37.9-0.2-75.8-0.2-113.6c-1.4,0-2.6,0-3.9,0c-2.8-0.1-5.6-0.6-8.4-1.4c-4.8-1.4-9.2-3.7-13.1-6.9
	c-2.6-2.1-4.8-4.5-6.7-7.2s-3.4-5.7-4.5-8.8c-0.9-2.6-1.5-5.2-1.8-7.8c-0.4-3-0.3-6.1,0.1-9.1c0.5-3.4,1.4-6.7,2.8-9.8
	c1.7-3.8,4-7.1,6.8-10.1c2.4-2.5,5.2-4.7,8.2-6.4c2.6-1.5,5.4-2.6,8.2-3.4C81.8,6.4,83.9,6,86,5.8c2.9-0.3,5.8-0.2,8.6,0.2
	c5.2,0.7,10,2.6,14.5,5.4c3.3,2.1,6.2,4.7,8.6,7.8c1.9,2.3,3.4,4.9,4.7,7.6c1.4,3.1,2.4,6.3,2.8,9.6c0.2,2,0.4,4,0.4,6
	c0,2.3-0.3,4.7-0.8,6.9c-0.7,3.1-1.7,6.1-3.2,9c-1.1,2.2-2.5,4.2-4,6.2c-1.7,2.3-3.4,4.6-5,7c-0.3,0.4-0.3,0.9-0.3,1.4
	c0,0.9,0,1.7,0,2.6c0,1.2,0,2.4,0,3.6C112.4,79.3,112.4,79.5,112.4,79.8z M176.5,89.8c0-10.6-8.4-20.8-21.1-20.7
	c-10.4,0.1-20.2,8.3-20.3,20.7c-0.1,10.8,8.7,21,21.4,20.7C166.6,110.3,176.4,102.1,176.5,89.8z M110.2,42.1
	c0-12.3-9.9-21.5-21.7-21c-10.8,0.5-20.2,9.4-19.7,21.6c0.4,10.9,9.4,20.4,21.8,19.8C101.5,62,110,53.1,110.2,42.1z M107,95.6
	c0-2.8-1.9-5.2-5.1-5.3c-2.7-0.1-5.2,1.8-5.3,4.9c-0.2,3,1.8,5.4,5,5.5C104.4,100.7,106.8,98.7,107,95.6z"/>
<path class="st0" d="M86.6,88.3c0,0.8,0,1.5,0,2.2c0,1,0,1.9,0,2.9s0,2,0,2.9c0,1.1,0,2.2,0.1,3.3c0,2.5,0,4.9,0,7.4
	c0,0.9,0,1.8,0,2.7c0,0.2-0.2,0.4-0.3,0.4c-1.7,0.6-3.4,1.1-5.1,1.7c-1.5,0.5-3,1-4.5,1.5c-1.2,0.4-2.4,0.7-3.6,1.1
	c-1.7,0.5-3.3,1.1-5,1.6c-2,0.7-4,1.3-6.1,2c-2.2,0.7-4.4,1.5-6.6,2.2c-1.7,0.6-3.4,1.1-5.2,1.7c-1.2,0.4-2.3,0.8-3.5,1.2
	c-2,0.6-4,1.3-6,1.9c-2.1,0.7-4.3,1.4-6.4,2.1c-2,0.7-4,1.3-6,1.9c-1.2,0.4-2.3,0.8-3.5,1.2c-0.9,0.3-1.9,0.6-2.8,0.9
	c-0.9,0.3-1.7,0.6-2.6,0.9c-1.8,0.6-3.6,1.2-5.4,1.8c-0.5,0.2-0.9,0.3-1.5,0.5c-0.1-0.5-0.3-1.1-0.4-1.6c-0.7-4.8,0-9.4,2.4-13.6
	c1.6-2.8,3.7-5.1,6.3-7c2.2-1.7,4.5-3.1,7.1-4.1c1.9-0.8,3.7-1.5,5.6-2.2c2.1-0.7,4.3-1.4,6.4-2.1c4.1-1.3,8.2-2.7,12.3-4
	c2.2-0.7,4.5-1.5,6.7-2.2c1.7-0.6,3.5-1.1,5.3-1.7c2-0.6,3.9-1.3,5.9-2c2.2-0.7,4.3-1.4,6.5-2.1s4.4-1.5,6.7-2.2
	C84.4,89,85.5,88.7,86.6,88.3z"/>
</svg>
