<?xml version="1.0" encoding="utf-8"?>
<!-- Generator: Adobe Illustrator 24.3.0, SVG Export Plug-In . SVG Version: 6.00 Build 0)  -->
<svg version="1.1" id="Layer_3" xmlns="http://www.w3.org/2000/svg" xmlns:xlink="http://www.w3.org/1999/xlink" x="0px" y="0px"
	 viewBox="0 0 200 200" style="enable-background:new 0 0 200 200;" xml:space="preserve">
<style type="text/css">
	.st0{fill:#530416;}
</style>
<path class="st0" d="M160.3,101.7c0,20.1,0,40.2,0,60.3c0,5.5-1,10.9-3.4,15.9c-3.2,6.7-8.2,11.8-14.8,15.3
	c-5.4,2.9-11.3,4.3-17.5,4.3c-10.3,0-20.6,0-30.9,0c-7-0.1-13.5-1.9-19.3-5.7c-3.4-2.2-6.2-5-8.6-8.2
	c-14.9-19.2-29.8-38.3-44.7-57.5c-1.4-1.9-2.9-3.8-3.9-5.9c-2.6-5.2-1.5-11.1,2.8-15.2c3.4-3.2,7.4-4.6,12-3.8
	c2.9,0.5,5.4,1.9,7.3,4.1c6.4,7.6,12.7,15.2,19.1,22.9c0.1,0.1,0.3,0.2,0.5,0.3c0.1-0.2,0.2-0.4,0.2-0.5c0-2,0-4,0-6
	c0-31.3,0-62.7,0-94c0-2.2,0.4-4.2,1.8-6c1.8-2.2,4.2-3.4,7-3.7c2.1-0.2,4.1,0.2,5.9,1.2c3,1.6,4.5,4.2,4.7,7.6c0,0.5,0,0.9,0,1.4
	c0,21.1,0,42.1,0,63.2c0,1.7,0.6,3.1,2.1,3.9c2.5,1.3,5.5-0.4,5.7-3.1c0-0.3,0-0.6,0-1c0-26.3,0-52.6,0-78.8c0-3.4,1.3-6.2,4-8.3
	c5.1-3.8,12.2-1.8,14.6,4.1c0.6,1.4,0.8,2.8,0.8,4.3c0,25.1,0,50.1,0,75.2c0,2.2,1.1,3.7,3,4.2c2.2,0.6,4.6-1.1,4.8-3.4
	c0-0.4,0-0.8,0-1.2c0-22.3,0-44.6,0-66.9c0-2,0.3-4,1.4-5.7c1.6-2.7,4-4.2,7.1-4.5c3.2-0.3,6.2,0.3,8.5,2.8c1.6,1.7,2.3,3.8,2.4,6.2
	c0,0.4,0,0.8,0,1.2c0,23.7,0,47.5,0,71.2c0,2,1,3.5,2.7,4.1c2.6,0.9,5.1-0.8,5.2-3.6c0-0.2,0-0.5,0-0.7c0-17.1,0-34.3,0-51.4
	c0-1.9,0.2-3.6,1.1-5.3c1.2-2.5,3.2-4,5.8-4.6c2.2-0.5,4.3-0.5,6.4,0.2c3.4,1.1,5.2,3.6,5.8,6.9c0.2,1,0.3,2,0.3,3
	C160.3,60.8,160.3,81.3,160.3,101.7z M109.6,168.2c0.1-0.1,0.2-0.1,0.2-0.2c7.5-7.5,15.1-15.1,22.6-22.6c5.9-5.9,5.8-15.1,0.5-21
	c-6.1-6.7-16.8-6.5-22.6,0.4c-0.2,0.3-0.4,0.5-0.6,0.8c-0.1-0.1-0.1-0.1-0.2-0.1c-0.2-0.3-0.4-0.5-0.7-0.8c-2.5-2.9-5.7-4.6-9.4-5
	c-5.3-0.6-9.8,1.1-13.3,5.1c-3.4,3.9-4.5,8.5-3.3,13.5c0.7,3,2.2,5.4,4.4,7.5c7.3,7.3,14.7,14.7,22,22
	C109.3,167.9,109.4,168,109.6,168.2z"/>
</svg>
