<?xml version="1.0" encoding="utf-8"?>
<!-- Generator: Adobe Illustrator 24.3.0, SVG Export Plug-In . SVG Version: 6.00 Build 0)  -->
<svg version="1.1" id="Layer_3" xmlns="http://www.w3.org/2000/svg" xmlns:xlink="http://www.w3.org/1999/xlink" x="0px" y="0px"
	 viewBox="0 0 200 200" style="enable-background:new 0 0 200 200;" xml:space="preserve">
<style type="text/css">
	.st0{fill:#530416;}
</style>
<path class="st0" d="M179,30.5c-0.9,0.7-1.8,1.3-2.7,2.1c-3.9,3.6-6.7,8.2-9,12.9c-3,6.3-5.2,12.9-7.5,19.5
	c-2,5.9-4.1,11.7-6.6,17.4c-3.8,8.6-9.4,15.8-16.7,21.7c-6.7,5.3-14.1,9.2-21.9,12.3c-3.5,1.4-7,2.8-10.5,4.1c-2.9,1.1-5.4,3-7.7,5
	c-4,3.4-8,6.9-12.2,10.2c-3.7,2.9-7.8,5.3-12.3,6.8c-6.7,2.2-12.9,1.2-18.4-3.3c-3.2-2.6-5.3-5.9-6-10c-0.6-3.8,0-7.4,1.5-10.9
	c1.9-4.2,4.8-7.7,8.2-10.8c5.1-4.7,10.8-8.4,16.9-11.6c3.2-1.7,6.5-3.1,9.8-4.6c0.3-0.1,0.5-0.3,0.7-0.6c4.5-6.2,9.1-12.4,14-18.2
	c2.1-2.5,4.2-5,6.8-7.1c0.2-0.2,0.5-0.4,0.9-0.7c-1.1,0.2-2,0.4-2.9,0.6c-4.7,0.9-9.5,1.4-14.3,1.2c-3.6-0.2-7.2-0.7-10.4-2.3
	c-1.3-0.7-2.6-1.5-3.8-2.3C74,63.4,73,65,72,66.5c-2.6,3.9-5.7,7.3-9.6,9.9c-2.5,1.7-5.2,3-8.2,3.7c0.1,0.1,0.1,0.3,0.1,0.3
	c2,3.4,3,7,3.6,10.8c0.2,1.3,0.3,2.5,0.5,3.8c0,0.3,0,0.5-0.3,0.7c-3.3,1.7-6,4.1-8.4,6.9c-3.9,4.6-7,9.7-9.1,15.4
	c-0.2,0.4-0.3,0.8-0.4,1.3c-0.1,0.4-0.2,0.8-0.3,1.4c-0.5-1.2-1.1-2.3-1.5-3.4c-3.2-7.5-6-15.1-8.4-22.9c-1.8-5.8-3.3-11.8-5.1-17.6
	c-0.7-2.4-0.3-4.7,0.6-7c1.5-3.9,3.5-7.6,5.6-11.3c4.7-8.2,9.8-16,15.5-23.5c0.9-1.2,1.8-2.3,2.7-3.4c1.3-1.6,2.9-2.8,4.8-3.5
	c4-1.6,7.9-3.2,12-4.6c9.1-3.2,18.3-6.3,27.4-9.4c7.3-2.5,14.6-5,21.8-7.9c2-0.8,3.8-1.8,5.8-2.7c0.2-0.1,0.5-0.2,0.7-0.2
	c3.5,0.1,6.9,0.6,10.3,1.3c8.9,1.8,17.5,4.5,25.7,8.4c5.1,2.4,10,5.2,14.3,9c2.7,2.4,5.1,5.1,6.9,8.3c0,0.1,0.1,0.2,0.2,0.2
	C179,30.4,179,30.4,179,30.5z"/>
<path class="st0" d="M40.6,134c1.1,1.8,2.2,3.6,3.3,5.4c3.3,5.3,8.1,8.7,14,10.6c5.5,1.8,11,1.3,16.5-0.4c5.5-1.8,10.3-4.7,14.9-8.2
	c2.5-2,4.9-4.1,7.4-6.1c0.1-0.1,0.2-0.2,0.4-0.3c1.8,2.1,3.4,4.3,4.7,6.7c3.1,5.8,4.3,12,4,18.5c-0.4,8.3-3.1,15.7-8.4,22.1
	c-5.6,6.7-12.7,10.9-21.3,12.5s-16.8,0.6-24.6-3.6c-9.7-5.1-15.8-13.1-18.5-23.8c-2.1-8.3-1.1-16.4,2.4-24.2c1.4-3.1,3.1-6,5-8.8
	C40.4,134.3,40.5,134.1,40.6,134z"/>
</svg>
