<?xml version="1.0" encoding="utf-8"?>
<!-- Generator: Adobe Illustrator 24.3.0, SVG Export Plug-In . SVG Version: 6.00 Build 0)  -->
<svg version="1.1" id="Layer_1" xmlns="http://www.w3.org/2000/svg" xmlns:xlink="http://www.w3.org/1999/xlink" x="0px" y="0px"
	 viewBox="0 0 200 200" style="enable-background:new 0 0 200 200;" xml:space="preserve">
<style type="text/css">
	.st0{fill:#530416;}
</style>
<g id="Layer_1_1_">
	<path class="st0" d="M175.4,77c-1.9,18.8-4,40.5-5.5,59c13.7-12.2,21.5-25.3,21.5-31.7C191.4,98.2,185.7,87.6,175.4,77z
		 M125.9,140.7c-7.9,2.6-16.8,4.3-26.6,4.3c-39.7,0-68.8-30.5-68.8-40.5C30.5,94.2,55.6,64,99.3,64c7,0,13.6,0.8,19.7,2.2
		c-0.4-3.9-0.8-7.6-1.1-11.1c-0.3-3.1-0.6-5.9-0.9-8.5c-5.6-1-11.6-1.5-17.7-1.5c-56.5,0-92.1,44.3-92.1,59.5
		c0,14.7,40.9,59.5,92.1,59.5c5.6,0,11.1-0.5,16.3-1.4c1.2-6.1,3.9-11.7,8-16.1c0.8-0.9,1.6-1.7,2.5-2.5L125.9,140.7z"/>
	<path class="st0" d="M119.5,71.5c-6.2-3.9-13.7-6.1-21.6-6.1C75.8,65.4,58,82.7,58,103.9c0,21.3,17.9,38.5,39.9,38.5
		c10.6,0,20.2-3.9,27.3-10.4C123.5,112.5,121.3,90.2,119.5,71.5z M98.5,111.1c-3.9,0-7-3.1-7-7s3.1-7,7-7s7,3.1,7,7
		S102.4,111.1,98.5,111.1z"/>
</g>
<g id="Layer_2_1_">
	<g>
		<path class="st0" d="M165.3,169.5c0,10.5-7.5,17.8-17.5,17.8s-16.9-7.2-16.9-17.8c0-4.9,1.7-9.3,4.6-12.5c1.5-1.7,3.4-3,5.5-3.9
			c1.9-0.8,4-1.3,6.3-1.4l0,0c0.2,0,0.4,0,0.6,0c2.5,0,4.9,0.5,7,1.4C161.2,155.8,165.3,162,165.3,169.5z"/>
	</g>
	<path class="st0" d="M163.7,30.4c0,2.8-0.3,6.7-0.8,10.8c-0.5,5.9-1.3,13.9-2.3,23.2c-0.7,7.1-1.5,14.9-2.3,22.9
		c-1.2,12-2.4,24.7-3.4,36.6c-0.4,4.2-0.7,8.3-1,12.3c0,0.3,0,0.6-0.1,0.9h-12.1c0-0.3,0-0.5-0.1-0.8c-0.1-0.9-0.1-1.7-0.2-2.6
		c-1.7-19.8-3.9-42.8-5.8-62.2c-0.8-7.7-1.5-14.8-2.1-21c-0.3-3.3-0.6-6.4-0.9-9.1c-0.3-3.6-0.8-8.6-0.8-11.4
		c0-7.2,8.1-9.2,15.8-9.2C155.1,21,163.4,22.7,163.7,30.4z"/>
</g>
</svg>
